<svg width="500" height="500" viewBox="0 0 500 500" fill="none" xmlns="http://www.w3.org/2000/svg">
<path d="M409.53 293.66C409.29 293.56 408.53 277.38 415.53 267.85C422.53 258.32 430.93 257.22 436.47 259.54C442.01 261.86 440.87 267.54 434.05 270.96C427.23 274.38 418.74 280.34 416.72 291.22L409.53 293.66Z" fill="#F6AE2D"/>
<path opacity="0.1" d="M409.53 293.66C409.29 293.56 408.53 277.38 415.53 267.85C422.53 258.32 430.93 257.22 436.47 259.54C442.01 261.86 440.87 267.54 434.05 270.96C427.23 274.38 418.74 280.34 416.72 291.22L409.53 293.66Z" fill="black"/>
<path d="M412.09 288.91C412.212 288.909 412.33 288.866 412.423 288.787C412.516 288.709 412.579 288.6 412.6 288.48C415.21 272.05 424.92 264 433.14 261.95C433.214 261.942 433.285 261.918 433.348 261.88C433.412 261.842 433.467 261.791 433.509 261.73C433.551 261.669 433.58 261.6 433.594 261.527C433.607 261.454 433.605 261.379 433.587 261.307C433.569 261.235 433.535 261.168 433.489 261.11C433.443 261.052 433.385 261.004 433.319 260.97C433.253 260.937 433.181 260.917 433.107 260.914C433.033 260.91 432.959 260.922 432.89 260.95C424.35 263.08 414.27 271.4 411.57 288.32C411.55 288.458 411.585 288.598 411.667 288.71C411.749 288.822 411.873 288.898 412.01 288.92L412.09 288.91Z" fill="white"/>
<path d="M410.78 323.691C411.84 319.431 416.13 316.611 421.2 316.151C426.46 315.681 432.59 315.151 434.2 310.711C435.81 306.271 434.2 300.241 434.93 297.291C435.84 293.711 437.21 291.581 444.12 289.411C450.32 287.411 453.75 281.541 447.5 279.041C441.25 276.541 435 278.121 430.75 280.041C426.5 281.961 426.3 283.951 420.32 283.441C414.34 282.931 409.87 286.691 409.5 290.311L410.78 323.691Z" fill="#F6AE2D"/>
<path d="M410.78 309.23C410.886 309.229 410.99 309.196 411.077 309.136C411.165 309.075 411.232 308.99 411.27 308.89C416.19 295.18 436.27 282.78 442.99 281.99C443.127 281.973 443.252 281.902 443.338 281.794C443.424 281.686 443.464 281.548 443.45 281.41C443.443 281.342 443.422 281.276 443.388 281.216C443.355 281.157 443.31 281.104 443.256 281.062C443.201 281.02 443.139 280.989 443.073 280.972C443.007 280.954 442.938 280.951 442.87 280.96C436 281.77 415.34 294.48 410.29 308.54C410.248 308.67 410.258 308.812 410.317 308.935C410.377 309.058 410.482 309.153 410.61 309.2C410.664 309.221 410.722 309.231 410.78 309.23V309.23Z" fill="white"/>
<path d="M415.49 301H415.61C415.744 300.969 415.86 300.887 415.933 300.77C416.006 300.654 416.03 300.514 416 300.38C414.34 293.24 416 288.64 416 288.59C416.024 288.526 416.035 288.459 416.032 288.391C416.029 288.323 416.013 288.256 415.984 288.195C415.955 288.133 415.914 288.078 415.864 288.033C415.813 287.987 415.754 287.952 415.69 287.93C415.626 287.906 415.557 287.895 415.489 287.898C415.42 287.901 415.353 287.917 415.29 287.946C415.228 287.974 415.172 288.015 415.126 288.066C415.079 288.116 415.043 288.176 415.02 288.24C414.95 288.43 413.28 293.15 415.02 300.61C415.049 300.716 415.109 300.81 415.193 300.88C415.277 300.949 415.381 300.991 415.49 301V301Z" fill="white"/>
<path d="M412.09 306.26C412.174 306.261 412.256 306.24 412.33 306.2C416.33 304 425.13 305.57 425.22 305.58C425.291 305.61 425.369 305.623 425.446 305.619C425.523 305.616 425.598 305.595 425.667 305.558C425.735 305.521 425.794 305.47 425.839 305.407C425.885 305.345 425.916 305.273 425.931 305.197C425.945 305.121 425.942 305.043 425.923 304.968C425.903 304.893 425.867 304.824 425.817 304.765C425.767 304.706 425.705 304.658 425.634 304.626C425.564 304.595 425.487 304.579 425.41 304.58C425.03 304.51 416.2 302.94 411.84 305.3C411.779 305.333 411.726 305.377 411.682 305.43C411.639 305.484 411.606 305.545 411.587 305.611C411.567 305.677 411.561 305.747 411.568 305.815C411.576 305.884 411.597 305.95 411.63 306.01C411.678 306.089 411.745 306.153 411.826 306.197C411.907 306.241 411.998 306.263 412.09 306.26V306.26Z" fill="white"/>
<path d="M160.18 268.98L152.01 264.26L160.18 261.9V268.98Z" fill="black"/>
<path d="M111.15 290.211V297.731L66.2 271.781V264.261L111.15 290.211Z" fill="black"/>
<path d="M62.12 205.28L107.06 231.23V292.56L62.12 266.62V205.28Z" fill="#263238"/>
<path d="M107.06 231.231L168.35 195.851V257.181L107.06 292.561V231.231Z" fill="#37474F"/>
<path d="M168.35 195.85L123.41 169.9L62.12 205.28L107.06 231.23L168.35 195.85Z" fill="#455A64"/>
<path d="M111.15 233.591L164.26 202.931V217.081L111.15 247.751V233.591Z" fill="#455A64"/>
<g style="mix-blend-mode:multiply">
<g style="mix-blend-mode:multiply">
<path d="M131.58 223C131.58 223.65 133.53 223.05 135.93 221.66L143.56 217.25C145.97 215.87 147.92 214.25 147.92 213.56V212.38L131.58 221.82V223Z" fill="#263238"/>
</g>
</g>
<path d="M111.15 252.461L164.26 221.801V235.951L111.15 266.621V252.461Z" fill="#455A64"/>
<g style="mix-blend-mode:multiply">
<g style="mix-blend-mode:multiply">
<path d="M131.58 241.85C131.58 242.5 133.53 241.9 135.93 240.51L143.56 236.11C145.97 234.72 147.92 233.06 147.92 232.41V231.23L131.58 240.67V241.85Z" fill="#263238"/>
</g>
</g>
<path d="M111.15 271.33L164.26 240.67V254.82L111.15 285.49V271.33Z" fill="#455A64"/>
<g style="mix-blend-mode:multiply">
<g style="mix-blend-mode:multiply">
<path d="M131.58 260.721C131.58 261.371 133.53 260.721 135.93 259.381L143.56 254.981C145.97 253.591 147.92 251.981 147.92 251.281V250.101L131.58 259.541V260.721Z" fill="#263238"/>
</g>
</g>
<path d="M111.15 297.731L115.23 295.371V287.851L111.15 290.211V297.731Z" fill="#263238"/>
<path d="M160.18 268.98L164.26 266.62V259.54L160.18 261.9V268.98Z" fill="#263238"/>
<path d="M105.14 226.13L129.57 212C130.05 211.73 130.05 211.28 129.57 211L96.06 191.92C95.79 191.784 95.4921 191.714 95.19 191.714C94.8879 191.714 94.59 191.784 94.32 191.92L70.11 205.92C69.62 206.19 69.62 206.64 70.11 206.92L103.39 226.14C103.662 226.276 103.962 226.346 104.266 226.345C104.57 226.343 104.87 226.269 105.14 226.13V226.13Z" fill="#E0E0E0"/>
<path d="M70.08 205.87L97.58 188.39C97.845 188.25 98.1402 188.177 98.44 188.177C98.7397 188.177 99.035 188.25 99.3 188.39L109.2 194.11C109.433 194.248 109.605 194.469 109.683 194.728C109.761 194.988 109.738 195.267 109.62 195.51L109.21 196.3C109.091 196.542 109.067 196.821 109.143 197.08C109.219 197.339 109.389 197.56 109.62 197.7L129.57 209.31C129.66 209.359 129.735 209.432 129.787 209.52C129.839 209.607 129.866 209.708 129.866 209.81C129.866 209.912 129.839 210.013 129.787 210.101C129.735 210.189 129.66 210.261 129.57 210.31L105.08 226.08C104.816 226.223 104.52 226.297 104.22 226.297C103.92 226.297 103.624 226.223 103.36 226.08L70.11 206.91C70.0047 206.872 69.9135 206.803 69.8479 206.712C69.7824 206.621 69.7457 206.512 69.7424 206.4C69.7392 206.288 69.7696 206.178 69.8298 206.083C69.89 205.989 69.9771 205.915 70.08 205.87V205.87Z" fill="#F5F5F5"/>
<path d="M127.39 135C127.31 134.942 127.216 134.905 127.118 134.895C127.02 134.884 126.92 134.9 126.83 134.94L126.21 135.3L126.59 174.81C126.606 175.088 126.687 175.359 126.826 175.6C126.964 175.841 127.158 176.047 127.39 176.2L158.32 194.06V152.88L127.39 135Z" fill="#F6AE2D"/>
<path opacity="0.2" d="M127.39 135C127.31 134.942 127.216 134.905 127.118 134.895C127.02 134.884 126.92 134.9 126.83 134.94L126.21 135.3L126.59 174.81C126.606 175.088 126.687 175.359 126.826 175.6C126.964 175.841 127.158 176.047 127.39 176.2L158.32 194.06V152.88L127.39 135Z" fill="black"/>
<path d="M126.79 135.37C126.35 135.12 125.99 135.37 125.99 135.84V175.19C126.006 175.468 126.087 175.738 126.226 175.98C126.364 176.221 126.558 176.427 126.79 176.58L157.72 194.43V153.22L126.79 135.37Z" fill="#F6AE2D"/>
<path opacity="0.5" d="M126.79 135.37C126.35 135.12 125.99 135.37 125.99 135.84V175.19C126.006 175.468 126.087 175.738 126.226 175.98C126.364 176.221 126.558 176.427 126.79 176.58L157.72 194.43V153.22L126.79 135.37Z" fill="black"/>
<path d="M150.12 190.6L127.23 177.38C126.998 177.227 126.804 177.021 126.666 176.78C126.527 176.538 126.446 176.268 126.43 175.99V139.69L123.43 137.98L126.49 136.22H126.55C126.68 136.02 126.93 135.97 127.23 136.14L153.44 151.29V192.5L150.1 194.42L150.12 190.6Z" fill="#EBEBEB"/>
<path d="M123.89 138.101C123.45 137.851 123.09 138.101 123.09 138.561V177.921C123.105 178.198 123.186 178.467 123.325 178.707C123.464 178.946 123.657 179.15 123.89 179.301L150.12 194.451V153.241L123.89 138.101Z" fill="#FAFAFA"/>
<path d="M150.11 153.24L153.44 151.32L153.46 192.53L150.12 194.45L150.11 153.24Z" fill="#E6E6E6"/>
<path d="M149 154.36C148.994 154.258 148.974 154.157 148.94 154.06C148.891 153.905 148.805 153.765 148.69 153.65C148.657 153.609 148.616 153.575 148.57 153.55C148.34 153.41 148.14 153.55 148.15 153.87C148.149 154.016 148.183 154.16 148.25 154.29C148.315 154.45 148.426 154.586 148.57 154.68C148.57 154.68 148.57 154.68 148.63 154.68C148.86 154.8 149 154.66 149 154.36Z" fill="#263238"/>
<path d="M153.65 156.361C154.068 156.141 154.402 155.789 154.6 155.361C154.68 155.155 154.713 154.934 154.696 154.714C154.678 154.494 154.612 154.281 154.5 154.091C154.294 153.758 154.005 153.485 153.66 153.301L153.45 153.181V153.711C153.685 153.794 153.889 153.949 154.033 154.153C154.177 154.357 154.254 154.601 154.254 154.851C154.254 155.1 154.177 155.344 154.033 155.548C153.889 155.752 153.685 155.907 153.45 155.991C152.83 156.305 152.145 156.469 151.45 156.469C150.755 156.469 150.07 156.305 149.45 155.991C149.203 155.89 148.993 155.717 148.848 155.493C148.703 155.27 148.631 155.007 148.64 154.741C148.659 154.493 148.77 154.261 148.95 154.091C148.901 153.936 148.815 153.795 148.7 153.681C148.507 153.858 148.357 154.077 148.26 154.321C148.179 154.525 148.147 154.745 148.166 154.964C148.185 155.182 148.255 155.394 148.37 155.581C148.576 155.922 148.869 156.202 149.22 156.391C149.908 156.738 150.668 156.916 151.439 156.911C152.209 156.906 152.967 156.717 153.65 156.361V156.361Z" fill="#263238"/>
<path d="M149.92 157.181L121.5 138.001L121.94 137.751C122.065 137.691 122.202 137.66 122.34 137.66C122.478 137.66 122.615 137.691 122.74 137.751L150.53 156.751L149.92 157.181Z" fill="#F6AE2D"/>
<path opacity="0.2" d="M149.92 157.181L121.5 138.001L121.94 137.751C122.065 137.691 122.202 137.66 122.34 137.66C122.478 137.66 122.615 137.691 122.74 137.751L150.53 156.751L149.92 157.181Z" fill="black"/>
<path d="M122.06 138.101C121.62 137.851 121.26 138.101 121.26 138.571V177.921C121.275 178.199 121.356 178.469 121.497 178.709C121.638 178.949 121.834 179.152 122.07 179.301L150.39 198.671V157.461L122.06 138.101Z" fill="#F6AE2D"/>
<path d="M158.31 152.88L158.32 194.09L150.38 198.67V157.45L158.31 152.88Z" fill="#F6AE2D"/>
<path opacity="0.1" d="M158.31 152.88L158.32 194.09L150.38 198.67V157.45L158.31 152.88Z" fill="black"/>
<path d="M156.73 161.921C156.629 161.732 156.487 161.568 156.314 161.441C156.141 161.315 155.941 161.229 155.73 161.191C155.255 161.138 154.775 161.247 154.37 161.501C153.723 161.919 153.185 162.486 152.801 163.154C152.417 163.821 152.197 164.571 152.16 165.341C152.148 165.735 152.241 166.125 152.43 166.471C152.552 166.666 152.714 166.833 152.904 166.961C153.095 167.089 153.311 167.175 153.538 167.214C153.765 167.253 153.997 167.243 154.22 167.186C154.442 167.128 154.65 167.024 154.83 166.881C155.479 166.466 156.019 165.902 156.406 165.236C156.792 164.569 157.013 163.82 157.05 163.051C157.052 162.658 156.959 162.27 156.78 161.921H156.73Z" fill="#455A64"/>
<path d="M154.56 161.901C155.65 161.271 156.56 161.781 156.56 163.051C156.522 163.74 156.321 164.41 155.973 165.006C155.625 165.603 155.141 166.108 154.56 166.481C153.47 167.121 152.56 166.601 152.56 165.341C152.6 164.651 152.803 163.98 153.15 163.382C153.497 162.785 153.98 162.277 154.56 161.901Z" fill="#F5F5F5"/>
<path d="M154.17 170.44L154.77 170.09C155.97 169.4 156.95 169.96 156.95 171.35V189.21C156.909 189.966 156.69 190.701 156.311 191.356C155.932 192.011 155.404 192.567 154.77 192.98L154.17 193.33C152.97 194.02 151.99 193.46 151.99 192.07V174.21C152.031 173.455 152.25 172.719 152.629 172.064C153.008 171.409 153.536 170.853 154.17 170.44V170.44Z" fill="#F5F5F5"/>
<path d="M157.84 152.601L149.94 157.161L150.38 157.451L158.31 152.881L157.84 152.601Z" fill="#F6AE2D"/>
<path opacity="0.2" d="M157.84 152.601L149.94 157.161L150.38 157.451L158.31 152.881L157.84 152.601Z" fill="black"/>
<path d="M148.51 199.371C148.6 199.302 148.674 199.215 148.725 199.115C148.777 199.014 148.806 198.904 148.81 198.791V158.391C148.804 158.269 148.768 158.15 148.708 158.044C148.647 157.938 148.562 157.848 148.46 157.781L119 138.551L118.4 138.901V180.101L147.84 199.341C147.941 199.401 148.054 199.435 148.171 199.44C148.288 199.445 148.405 199.421 148.51 199.371V199.371Z" fill="#F6AE2D"/>
<path opacity="0.1" d="M148.09 158.39L148.69 158.04C148.752 158.147 148.79 158.267 148.8 158.39V198.79C148.796 198.903 148.767 199.014 148.715 199.114C148.664 199.214 148.59 199.302 148.5 199.37C148.397 199.421 148.284 199.448 148.17 199.448C148.055 199.448 147.942 199.421 147.84 199.37C148.03 199.48 148.19 199.37 148.19 199.17V158.77C148.196 158.636 148.161 158.504 148.09 158.39V158.39Z" fill="black"/>
<path opacity="0.5" d="M118.42 138.9L147.84 158.13C147.947 158.191 148.034 158.281 148.09 158.39C148.159 158.494 148.197 158.616 148.2 158.74V199.14C148.2 199.36 148.04 199.45 147.85 199.34L118.42 180.1V138.9Z" fill="black"/>
<path opacity="0.2" d="M118.42 138.901L119.02 138.551L148.45 157.781C148.55 157.847 148.632 157.936 148.69 158.041L148.09 158.391C148.034 158.282 147.947 158.191 147.84 158.131L118.42 138.901Z" fill="black"/>
<path d="M118.9 139.17L118.91 180.38L110.97 184.97L111.05 143.71L118.9 139.17Z" fill="#F6AE2D"/>
<path opacity="0.7" d="M118.9 139.17L118.91 180.38L110.97 184.97L111.05 143.71L118.9 139.17Z" fill="black"/>
<path d="M144 201.46C144.136 201.526 144.284 201.56 144.435 201.56C144.586 201.56 144.734 201.526 144.87 201.46L146.48 200.53C146.603 200.445 146.706 200.334 146.78 200.204C146.855 200.074 146.899 199.929 146.91 199.78V159.57C146.898 159.42 146.852 159.275 146.776 159.145C146.7 159.015 146.595 158.904 146.47 158.82L120.73 143L118.25 144.43V185.64L144 201.46Z" fill="#EBEBEB"/>
<path d="M118.26 185.62L144 201.46C144.24 201.6 144.43 201.46 144.43 201.21V161C144.419 160.849 144.374 160.701 144.298 160.57C144.222 160.438 144.116 160.325 143.99 160.24L118.24 144.4L118.26 185.62Z" fill="#FAFAFA"/>
<path d="M120.15 147.23C120.144 147.128 120.124 147.027 120.09 146.93C120.044 146.776 119.962 146.636 119.85 146.52L119.72 146.42C119.49 146.28 119.3 146.42 119.3 146.74C119.302 146.886 119.336 147.029 119.4 147.16C119.468 147.321 119.583 147.457 119.73 147.55C119.73 147.55 119.73 147.55 119.73 147.55C120 147.66 120.15 147.53 120.15 147.23Z" fill="#263238"/>
<path d="M144.3 160.581L146.79 159.141C146.869 159.274 146.914 159.425 146.92 159.581V199.781C146.908 199.931 146.862 200.076 146.786 200.206C146.71 200.336 146.605 200.447 146.48 200.531L144.87 201.461C144.752 201.513 144.624 201.54 144.495 201.54C144.366 201.54 144.238 201.513 144.12 201.461C144.3 201.511 144.43 201.401 144.43 201.161V161.001C144.428 160.851 144.383 160.705 144.3 160.581V160.581Z" fill="#E6E6E6"/>
<path d="M114.38 145.191C114.395 145.508 114.496 145.815 114.672 146.079C114.848 146.344 115.093 146.555 115.38 146.691C116.753 147.328 118.311 147.438 119.76 147.001L119.54 146.441C118.26 146.819 116.888 146.726 115.67 146.181C115.435 146.06 115.238 145.876 115.1 145.651C115.014 145.513 114.972 145.353 114.98 145.191C114.98 144.641 115.51 144.031 116.38 143.561C117.195 143.115 118.1 142.858 119.027 142.808C119.955 142.757 120.882 142.916 121.74 143.271C122.019 143.416 122.243 143.647 122.38 143.931L123.02 144.311V144.261C123.019 143.998 122.95 143.739 122.82 143.511C122.625 143.194 122.349 142.935 122.02 142.761C121.076 142.352 120.05 142.164 119.023 142.213C117.995 142.261 116.991 142.544 116.09 143.041C115.643 143.219 115.25 143.512 114.95 143.889C114.65 144.266 114.453 144.715 114.38 145.191V145.191Z" fill="#263238"/>
<path d="M143.46 202.28C143.554 202.215 143.631 202.129 143.685 202.028C143.739 201.927 143.768 201.815 143.77 201.7V161.3C143.763 161.178 143.728 161.06 143.668 160.954C143.607 160.848 143.522 160.758 143.42 160.69L111.14 143.11L110.54 143.46V184.66L142.83 202.25C142.925 202.305 143.032 202.336 143.141 202.342C143.251 202.347 143.36 202.326 143.46 202.28V202.28Z" fill="#F6AE2D"/>
<path opacity="0.1" d="M143.05 161.3L143.65 160.96C143.71 161.064 143.745 161.18 143.75 161.3V201.7C143.767 201.823 143.747 201.948 143.692 202.059C143.636 202.169 143.549 202.261 143.44 202.321C143.331 202.38 143.207 202.406 143.084 202.393C142.961 202.38 142.844 202.33 142.75 202.25C142.94 202.36 143.1 202.25 143.1 202.05V161.65C143.11 161.531 143.093 161.411 143.05 161.3V161.3Z" fill="black"/>
<path d="M110.52 143.46L142.8 161C142.904 161.065 142.99 161.155 143.051 161.261C143.112 161.368 143.146 161.487 143.15 161.61V202.01C143.15 202.23 142.99 202.32 142.8 202.21L110.51 184.62L110.52 143.46Z" fill="#F6AE2D"/>
<path opacity="0.2" d="M110.52 143.46L111.12 143.11L143.4 160.69C143.505 160.757 143.591 160.85 143.65 160.96L143.05 161.3C142.988 161.195 142.903 161.106 142.8 161.04L110.52 143.46Z" fill="black"/>
<path d="M118.42 138.9L110.53 143.46L111.05 143.71L118.9 139.17L118.42 138.9Z" fill="#F6AE2D"/>
<path opacity="0.2" d="M118.42 138.9L110.53 143.46L111.05 143.71L118.9 139.17L118.42 138.9Z" fill="black"/>
<path d="M111 144.51C110.915 144.46 110.819 144.434 110.72 144.434C110.621 144.434 110.525 144.46 110.44 144.51L109.82 144.86L110.2 184.38C110.215 184.657 110.296 184.926 110.435 185.166C110.574 185.406 110.767 185.609 111 185.76L141.93 203.62V162.36L111 144.51Z" fill="#F6AE2D"/>
<path opacity="0.2" d="M111 144.51C110.915 144.46 110.819 144.434 110.72 144.434C110.621 144.434 110.525 144.46 110.44 144.51L109.82 144.86L110.2 184.38C110.215 184.657 110.296 184.926 110.435 185.166C110.574 185.406 110.767 185.609 111 185.76L141.93 203.62V162.36L111 144.51Z" fill="black"/>
<path d="M110.36 144.861C109.92 144.601 109.56 144.811 109.56 145.321V184.671C109.575 184.949 109.655 185.22 109.794 185.462C109.933 185.703 110.127 185.908 110.36 186.061L141.29 203.921V162.711L110.36 144.861Z" fill="#F6AE2D"/>
<path opacity="0.5" d="M110.36 144.861C109.92 144.601 109.56 144.811 109.56 145.321V184.671C109.575 184.949 109.655 185.22 109.794 185.462C109.933 185.703 110.127 185.908 110.36 186.061L141.29 203.921V162.711L110.36 144.861Z" fill="black"/>
<path d="M133.69 200.09L110.8 186.86C110.566 186.708 110.372 186.503 110.232 186.262C110.093 186.02 110.014 185.749 110 185.47V149.18L107 147.47L110.06 145.7C110.101 145.65 110.151 145.609 110.208 145.578C110.264 145.548 110.326 145.529 110.39 145.522C110.455 145.516 110.519 145.522 110.581 145.54C110.643 145.559 110.7 145.589 110.75 145.63L137 160.8V202L133.66 203.93L133.69 200.09Z" fill="#EBEBEB"/>
<path d="M107.46 147.59C107.02 147.33 106.66 147.54 106.66 148.05V187.4C106.676 187.678 106.757 187.949 106.896 188.19C107.034 188.431 107.228 188.637 107.46 188.79L133.69 203.94V162.73L107.46 147.59Z" fill="#FAFAFA"/>
<path d="M133.68 162.731L137.01 160.801L137.03 202.011L133.69 203.941L133.68 162.731Z" fill="#E6E6E6"/>
<path d="M132.59 163.851C132.584 163.745 132.563 163.641 132.53 163.541C132.48 163.389 132.394 163.252 132.28 163.141C132.25 163.097 132.208 163.062 132.16 163.041C131.93 162.901 131.73 163.041 131.74 163.361C131.74 163.506 131.774 163.65 131.84 163.781C131.907 163.938 132.018 164.074 132.16 164.171H132.22C132.43 164.281 132.59 164.151 132.59 163.851Z" fill="#263238"/>
<path d="M137.22 165.84C137.64 165.623 137.975 165.271 138.17 164.84C138.25 164.636 138.283 164.417 138.266 164.198C138.248 163.98 138.181 163.769 138.07 163.58V163.58C137.867 163.245 137.577 162.972 137.23 162.79C137.163 162.744 137.093 162.704 137.02 162.67V163.19C137.255 163.274 137.459 163.428 137.603 163.632C137.747 163.836 137.824 164.08 137.824 164.33C137.824 164.58 137.747 164.823 137.603 165.028C137.459 165.232 137.255 165.386 137.02 165.47C136.401 165.788 135.716 165.953 135.02 165.953C134.324 165.953 133.639 165.788 133.02 165.47C132.773 165.37 132.563 165.196 132.418 164.972C132.273 164.749 132.201 164.486 132.21 164.22C132.234 163.974 132.344 163.744 132.52 163.57C132.47 163.419 132.384 163.281 132.27 163.17C132.075 163.346 131.925 163.565 131.83 163.81C131.769 164.009 131.752 164.218 131.782 164.424C131.811 164.63 131.886 164.826 132 165C132.206 165.338 132.5 165.615 132.85 165.8C133.523 166.153 134.27 166.34 135.03 166.347C135.79 166.354 136.541 166.18 137.22 165.84V165.84Z" fill="#263238"/>
<path d="M133.49 166.67L105.07 147.53L105.51 147.28C105.634 147.216 105.771 147.183 105.91 147.183C106.049 147.183 106.186 147.216 106.31 147.28L134.1 166.28L133.49 166.67Z" fill="#F6AE2D"/>
<path opacity="0.2" d="M133.49 166.67L105.07 147.53L105.51 147.28C105.634 147.216 105.771 147.183 105.91 147.183C106.049 147.183 106.186 147.216 106.31 147.28L134.1 166.28L133.49 166.67Z" fill="black"/>
<path d="M105.63 147.59C105.19 147.33 104.83 147.54 104.83 148.05V187.4C104.845 187.679 104.925 187.95 105.064 188.191C105.203 188.433 105.397 188.638 105.63 188.79L134 208.15V166.94L105.63 147.59Z" fill="#F6AE2D"/>
<path d="M141.88 162.36L141.89 203.57L133.95 208.16V166.94L141.88 162.36Z" fill="#F6AE2D"/>
<path opacity="0.1" d="M141.88 162.36L141.89 203.57L133.95 208.16V166.94L141.88 162.36Z" fill="black"/>
<path d="M140.3 171.4C140.199 171.212 140.056 171.05 139.883 170.925C139.71 170.8 139.51 170.717 139.3 170.68C138.824 170.622 138.344 170.732 137.94 170.99C137.293 171.407 136.755 171.971 136.371 172.637C135.987 173.304 135.767 174.052 135.73 174.82C135.71 175.231 135.803 175.639 136 176C136.123 176.194 136.285 176.36 136.476 176.487C136.667 176.614 136.883 176.7 137.109 176.739C137.335 176.777 137.567 176.768 137.789 176.711C138.012 176.655 138.22 176.552 138.4 176.41C139.049 175.993 139.59 175.427 139.976 174.759C140.362 174.091 140.583 173.341 140.62 172.57C140.624 172.176 140.527 171.787 140.34 171.44L140.3 171.4Z" fill="#455A64"/>
<path d="M138.13 171.39C139.22 170.76 140.13 171.27 140.13 172.54C140.092 173.229 139.891 173.899 139.543 174.496C139.195 175.092 138.711 175.597 138.13 175.97C137.04 176.6 136.13 176.09 136.13 174.83C136.169 174.139 136.37 173.468 136.718 172.87C137.065 172.272 137.549 171.765 138.13 171.39V171.39Z" fill="#F5F5F5"/>
<path d="M137.74 179.92L138.34 179.58C139.54 178.88 140.52 179.45 140.52 180.83V198.69C140.478 199.447 140.259 200.183 139.88 200.84C139.502 201.496 138.974 202.055 138.34 202.47L137.74 202.81C136.54 203.51 135.56 202.94 135.56 201.56V183.7C135.602 182.943 135.821 182.207 136.2 181.55C136.578 180.894 137.106 180.335 137.74 179.92V179.92Z" fill="#F5F5F5"/>
<path d="M141.41 162.08L133.51 166.64L133.95 166.94L141.88 162.36L141.41 162.08Z" fill="#F6AE2D"/>
<path opacity="0.2" d="M141.41 162.08L133.51 166.64L133.95 166.94L141.88 162.36L141.41 162.08Z" fill="black"/>
<path d="M364.12 151.44L360.17 144L363.35 134.83V129.22L353.63 134.83V140.45L357.81 147.68C357.871 147.796 357.97 147.887 358.09 147.94L364.12 151.44Z" fill="#F6AE2D"/>
<path opacity="0.2" d="M364.12 151.44L360.17 144L363.35 134.83V129.22L353.63 134.83V140.45L357.81 147.68C357.871 147.796 357.97 147.887 358.09 147.94L364.12 151.44Z" fill="black"/>
<path d="M387.33 84.63C387.267 83.6266 386.97 82.652 386.463 81.7839C385.956 80.9158 385.253 80.1782 384.41 79.63L382 78.22C381.097 77.7614 380.098 77.5225 379.085 77.5225C378.072 77.5225 377.073 77.7614 376.17 78.22L339.79 99.22C338.947 99.7682 338.244 100.506 337.737 101.374C337.23 102.242 336.933 103.217 336.87 104.22V144.22C336.933 145.223 337.23 146.198 337.737 147.066C338.244 147.934 338.947 148.672 339.79 149.22L342.16 150.59C343.063 151.048 344.062 151.287 345.075 151.287C346.088 151.287 347.087 151.048 347.99 150.59L359.69 143.83L363.86 151.05C363.918 151.155 364.005 151.241 364.112 151.298C364.218 151.354 364.338 151.379 364.458 151.368C364.577 151.358 364.691 151.312 364.786 151.238C364.88 151.164 364.951 151.064 364.99 150.95L369.39 138.22L384.39 129.55C385.233 129.002 385.936 128.264 386.443 127.396C386.95 126.528 387.247 125.553 387.31 124.55L387.33 84.63Z" fill="#F6AE2D"/>
<path opacity="0.2" d="M336.91 144.34C336.973 145.344 337.27 146.318 337.777 147.186C338.284 148.055 338.987 148.792 339.83 149.34L342.2 150.71C343.022 151.123 343.921 151.357 344.839 151.399C345.758 151.44 346.675 151.287 347.53 150.95C346.16 151.47 345.11 150.69 345.11 149.03V109C345.149 107.986 345.445 106.999 345.97 106.13L337.77 101.4C337.242 102.267 336.946 103.256 336.91 104.27V144.34Z" fill="black"/>
<path opacity="0.3" d="M387.23 83.8098C386.89 82.5698 385.76 82.1798 384.42 82.9498L348 104C347.131 104.53 346.42 105.283 345.94 106.18L337.75 101.44C338.236 100.552 338.942 99.805 339.8 99.2698L376.18 78.2698C377.083 77.8112 378.082 77.5723 379.095 77.5723C380.108 77.5723 381.107 77.8112 382.01 78.2698L384.39 79.6398C385.12 80.1074 385.748 80.718 386.236 81.4346C386.724 82.1512 387.062 82.9591 387.23 83.8098V83.8098Z" fill="white"/>
<path d="M370.2 112.57C370.151 112.559 370.1 112.559 370.05 112.57L368 112.4C367.954 112.402 367.907 112.396 367.864 112.38C367.82 112.364 367.78 112.339 367.747 112.307C367.713 112.276 367.686 112.237 367.668 112.195C367.649 112.152 367.64 112.106 367.64 112.06C367.64 111.73 367.69 111.4 367.69 111.06C367.69 110.72 367.69 110.36 367.69 110.06C367.691 109.835 367.772 109.619 367.92 109.45L370.25 106.62C370.319 106.542 370.367 106.448 370.392 106.347C370.416 106.246 370.416 106.141 370.39 106.04L369.28 103.58C369.269 103.55 369.247 103.526 369.22 103.51C369.13 103.51 368.99 103.51 368.86 103.62L366.37 105.9C366.303 105.976 366.211 106.027 366.111 106.043C366.011 106.059 365.908 106.041 365.82 105.99C365.503 105.727 365.145 105.517 364.76 105.37C364.674 105.336 364.602 105.274 364.557 105.194C364.511 105.114 364.495 105.021 364.51 104.93L365.28 101.44C365.292 101.393 365.287 101.344 365.267 101.3C365.247 101.257 365.213 101.221 365.17 101.2C365.096 101.173 365.014 101.173 364.94 101.2L362.5 101.44C362.387 101.45 362.279 101.489 362.186 101.554C362.093 101.619 362.018 101.707 361.97 101.81L360.64 105.36C360.527 105.586 360.34 105.766 360.11 105.87C359.585 106.124 359.08 106.418 358.6 106.75C358.4 106.88 358.17 106.89 358.08 106.75L356.83 104.84C356.74 104.71 356.54 104.74 356.38 104.9L353.7 107.73C353.624 107.807 353.566 107.899 353.53 108.001C353.493 108.103 353.48 108.212 353.49 108.32L354.24 110.84C354.273 111.052 354.226 111.269 354.11 111.45C353.657 112.139 353.243 112.854 352.87 113.59C352.737 113.8 352.53 113.954 352.29 114.02L350 114.58C349.886 114.607 349.781 114.66 349.69 114.735C349.6 114.809 349.528 114.903 349.48 115.01L348.33 118.89C348.317 118.932 348.314 118.977 348.322 119.02C348.33 119.064 348.349 119.105 348.377 119.139C348.404 119.174 348.44 119.201 348.481 119.219C348.522 119.236 348.566 119.243 348.61 119.24L350.71 119.36C350.756 119.358 350.801 119.366 350.843 119.383C350.886 119.399 350.924 119.424 350.957 119.456C350.99 119.487 351.016 119.525 351.033 119.567C351.051 119.609 351.06 119.654 351.06 119.7C351.001 120.365 351.001 121.034 351.06 121.7C351.059 121.925 350.981 122.144 350.84 122.32L348.5 125.15C348.431 125.228 348.383 125.321 348.358 125.422C348.334 125.523 348.335 125.629 348.36 125.73L349.47 128.18C349.482 128.215 349.507 128.243 349.54 128.26H349.62C349.722 128.246 349.816 128.201 349.89 128.13L352.38 125.85C352.447 125.774 352.539 125.723 352.639 125.707C352.739 125.69 352.842 125.709 352.93 125.76C353.249 126.02 353.607 126.229 353.99 126.38C354.077 126.411 354.15 126.473 354.196 126.554C354.242 126.634 354.257 126.729 354.24 126.82L353.47 130.31C353.459 130.355 353.463 130.403 353.481 130.446C353.499 130.489 353.53 130.526 353.57 130.55V130.55C353.644 130.576 353.726 130.576 353.8 130.55L356.24 130.31C356.352 130.298 356.46 130.258 356.553 130.193C356.645 130.128 356.72 130.041 356.77 129.94L358.1 126.39C358.216 126.166 358.402 125.986 358.63 125.88C358.894 125.757 359.151 125.62 359.4 125.47C359.65 125.33 359.89 125.17 360.14 125C360.39 124.83 360.57 124.86 360.66 125L361.91 126.91H361.97C362.07 126.98 362.23 126.91 362.36 126.8L365 124C365.077 123.924 365.135 123.831 365.169 123.728C365.204 123.626 365.215 123.517 365.2 123.41L364.46 120.89C364.426 120.676 364.477 120.457 364.6 120.28C365.056 119.594 365.467 118.879 365.83 118.14C365.963 117.929 366.17 117.776 366.41 117.71L368.7 117.15C368.815 117.126 368.923 117.074 369.014 116.999C369.104 116.924 369.175 116.828 369.22 116.72L370.37 112.84C370.38 112.782 370.368 112.722 370.336 112.672C370.305 112.623 370.257 112.586 370.2 112.57ZM358 122.05H357.87H357.77H357.55H357.3H357C356.508 122.054 356.025 121.909 355.616 121.635C355.208 121.36 354.892 120.968 354.71 120.51C354.528 120.104 354.413 119.672 354.37 119.23C354.355 118.993 354.355 118.756 354.37 118.52C354.514 115.926 355.578 113.469 357.37 111.59C357.91 111.005 358.529 110.5 359.21 110.09C359.42 109.97 359.63 109.86 359.83 109.77C360.372 109.519 360.963 109.396 361.56 109.41H361.75H361.85C362.274 109.472 362.674 109.645 363.011 109.91C363.347 110.174 363.609 110.523 363.77 110.92C364.77 113.21 363.61 117.21 361.12 119.84C360.308 120.854 359.227 121.62 358 122.05V122.05Z" fill="#455A64"/>
<path d="M384.85 118H384.73L383.15 117.91C383.116 117.913 383.081 117.909 383.048 117.897C383.016 117.886 382.986 117.868 382.96 117.845C382.935 117.821 382.915 117.793 382.901 117.761C382.887 117.729 382.88 117.695 382.88 117.66C382.88 117.41 382.88 117.16 382.88 116.92C382.895 116.657 382.895 116.393 382.88 116.13C382.882 115.959 382.942 115.793 383.05 115.66L384.83 113.51C384.882 113.451 384.919 113.38 384.936 113.303C384.954 113.226 384.952 113.146 384.93 113.07L384.09 111.21L384.04 111.15C383.97 111.15 383.87 111.15 383.77 111.23L381.86 113C381.807 113.057 381.738 113.094 381.662 113.107C381.586 113.119 381.508 113.107 381.44 113.07C381.201 112.87 380.931 112.712 380.64 112.6C380.575 112.576 380.521 112.53 380.486 112.469C380.451 112.409 380.439 112.339 380.45 112.27L381.03 109.62C381.038 109.584 381.034 109.547 381.02 109.513C381.006 109.479 380.981 109.45 380.95 109.43C380.891 109.419 380.829 109.419 380.77 109.43L378.92 109.62C378.835 109.63 378.754 109.66 378.684 109.709C378.614 109.758 378.558 109.824 378.52 109.9L377.52 112.59C377.431 112.762 377.286 112.9 377.11 112.98C376.713 113.17 376.332 113.391 375.97 113.64C375.81 113.75 375.64 113.75 375.57 113.64L374.62 112.2C374.56 112.09 374.4 112.12 374.28 112.2L372.28 114.35C372.223 114.408 372.179 114.477 372.152 114.553C372.124 114.629 372.113 114.71 372.12 114.79L372.69 116.71C372.713 116.871 372.678 117.034 372.59 117.17C372.244 117.691 371.93 118.232 371.65 118.79C371.553 118.954 371.395 119.073 371.21 119.12L369.47 119.54C369.385 119.561 369.306 119.6 369.238 119.656C369.171 119.711 369.117 119.781 369.08 119.86L368.2 122.86C368.19 122.893 368.188 122.928 368.195 122.962C368.202 122.996 368.216 123.027 368.238 123.054C368.26 123.081 368.288 123.101 368.32 123.115C368.351 123.128 368.386 123.133 368.42 123.13L370.01 123.22C370.044 123.218 370.079 123.222 370.112 123.233C370.144 123.245 370.174 123.263 370.2 123.286C370.225 123.31 370.245 123.338 370.259 123.37C370.273 123.402 370.28 123.436 370.28 123.47C370.235 123.979 370.235 124.491 370.28 125C370.283 125.173 370.223 125.34 370.11 125.47L368.34 127.62C368.287 127.679 368.249 127.75 368.23 127.827C368.211 127.903 368.211 127.984 368.23 128.06L369.07 129.92L369.12 129.97H369.2C369.278 129.963 369.351 129.932 369.41 129.88L371.3 128.15C371.35 128.093 371.418 128.055 371.493 128.043C371.567 128.03 371.644 128.043 371.71 128.08C371.954 128.278 372.227 128.437 372.52 128.55C372.585 128.575 372.639 128.621 372.674 128.681C372.709 128.742 372.721 128.812 372.71 128.88L372.12 131.53C372.114 131.565 372.119 131.6 372.133 131.632C372.147 131.664 372.171 131.691 372.2 131.71V131.71C372.255 131.727 372.315 131.727 372.37 131.71L374.22 131.52C374.305 131.511 374.386 131.48 374.456 131.431C374.526 131.382 374.582 131.317 374.62 131.24L375.62 128.55C375.705 128.379 375.846 128.241 376.02 128.16C376.22 128.07 376.41 127.96 376.61 127.85L377.17 127.5C377.32 127.39 377.5 127.38 377.56 127.5L378.51 128.94C378.521 128.962 378.539 128.979 378.56 128.99C378.612 129.008 378.667 129.008 378.72 128.992C378.772 128.976 378.817 128.944 378.85 128.9L380.85 126.75C380.907 126.693 380.951 126.624 380.978 126.548C381.006 126.472 381.017 126.391 381.01 126.31L380.44 124.39C380.42 124.229 380.459 124.066 380.55 123.93C380.896 123.412 381.207 122.871 381.48 122.31C381.58 122.149 381.737 122.031 381.92 121.98L383.66 121.56C383.747 121.541 383.828 121.501 383.896 121.443C383.964 121.386 384.017 121.313 384.05 121.23L384.93 118.29C384.947 118.267 384.959 118.24 384.965 118.212C384.97 118.183 384.969 118.154 384.961 118.126C384.954 118.098 384.939 118.072 384.92 118.05C384.901 118.028 384.877 118.011 384.85 118V118ZM375.57 125.19H375.47H375.4H375.23H375.04H374.87C374.495 125.196 374.128 125.087 373.817 124.877C373.506 124.668 373.266 124.369 373.13 124.02C372.986 123.705 372.898 123.366 372.87 123.02C372.86 122.844 372.86 122.667 372.87 122.49C372.981 120.518 373.798 118.651 375.17 117.23C375.578 116.784 376.05 116.4 376.57 116.09C376.712 116.054 376.855 116.024 377 116C377.414 115.811 377.865 115.719 378.32 115.73H378.54C378.861 115.778 379.165 115.909 379.419 116.111C379.674 116.313 379.871 116.578 379.99 116.88C380.77 118.61 379.87 121.64 377.99 123.64C377.346 124.384 376.508 124.934 375.57 125.23V125.19Z" fill="#455A64"/>
<path d="M238.39 225.05L232.23 221.56C231.145 220.941 230.243 220.046 229.614 218.966C228.985 217.886 228.653 216.66 228.65 215.41V182.87H231.92V215.41C231.918 216.083 232.094 216.744 232.432 217.325C232.769 217.907 233.255 218.388 233.84 218.72L240 222.22L238.39 225.05Z" fill="#263238"/>
<path d="M220.14 194.75C219.603 194.385 219.159 193.899 218.845 193.331C218.531 192.763 218.354 192.129 218.33 191.48V162.48C218.363 161.827 218.565 161.194 218.916 160.642C219.266 160.09 219.753 159.638 220.33 159.33L252.41 144.51C253.019 144.26 253.674 144.14 254.332 144.159C254.99 144.178 255.637 144.335 256.23 144.62C256.767 144.985 257.211 145.471 257.525 146.039C257.839 146.607 258.016 147.241 258.04 147.89V176.89C258.007 177.543 257.805 178.176 257.455 178.728C257.104 179.28 256.617 179.732 256.04 180.04L224 194.86C223.386 195.116 222.724 195.239 222.058 195.22C221.393 195.201 220.739 195.041 220.14 194.75V194.75Z" fill="#455A64"/>
<path d="M225.55 164.44L218.94 160.62C218.568 161.175 218.356 161.822 218.33 162.49V191.49C218.354 192.139 218.531 192.773 218.845 193.341C219.159 193.909 219.603 194.395 220.14 194.76C220.734 195.045 221.38 195.202 222.038 195.221C222.696 195.24 223.351 195.12 223.96 194.87L225.55 194.13V164.44Z" fill="#263238"/>
<path d="M224 161.42L256 146.61C256.211 146.476 256.457 146.404 256.707 146.405C256.958 146.406 257.203 146.479 257.413 146.614C257.624 146.75 257.791 146.943 257.895 147.171C257.999 147.399 258.035 147.652 258 147.9V176.9C257.967 177.553 257.765 178.186 257.415 178.738C257.064 179.29 256.577 179.742 256 180.05L224 194.86C223.788 194.99 223.544 195.058 223.295 195.055C223.046 195.052 222.803 194.979 222.594 194.844C222.385 194.709 222.218 194.518 222.113 194.293C222.008 194.067 221.969 193.817 222 193.57V164.57C222.035 163.917 222.238 163.285 222.588 162.733C222.938 162.182 223.425 161.729 224 161.42V161.42Z" fill="#37474F"/>
<path d="M231 226.919V281.339C230.987 281.591 230.915 281.836 230.79 282.055C230.665 282.274 230.49 282.461 230.28 282.6L228.34 283.719C228.115 283.833 227.867 283.892 227.615 283.892C227.363 283.892 227.115 283.833 226.89 283.719L225 282.6C224.79 282.461 224.615 282.274 224.49 282.055C224.365 281.836 224.293 281.591 224.28 281.339V226.919C224.28 226.272 224.537 225.652 224.995 225.194C225.452 224.737 226.073 224.479 226.72 224.479H228.6C229.24 224.49 229.851 224.752 230.3 225.208C230.749 225.665 231 226.279 231 226.919Z" fill="#263238"/>
<path d="M226 224.479C226.448 224.479 226.878 224.658 227.195 224.974C227.512 225.291 227.69 225.721 227.69 226.169V283.399C227.69 283.799 227.41 283.969 227.06 283.769L225 282.579C224.799 282.447 224.632 282.27 224.513 282.061C224.393 281.853 224.323 281.619 224.31 281.38V226.169C224.31 225.721 224.488 225.291 224.805 224.974C225.122 224.658 225.552 224.479 226 224.479V224.479Z" fill="#37474F"/>
<path d="M267.68 246V302C267.667 302.251 267.595 302.494 267.47 302.712C267.345 302.929 267.17 303.113 266.96 303.25L265 304.43C264.775 304.544 264.527 304.603 264.275 304.603C264.023 304.603 263.775 304.544 263.55 304.43L261.61 303.31C261.4 303.173 261.225 302.989 261.1 302.772C260.975 302.554 260.903 302.311 260.89 302.06V246C260.89 245.779 260.977 245.567 261.132 245.41C261.288 245.252 261.499 245.163 261.72 245.16H266.83C266.941 245.159 267.051 245.18 267.155 245.221C267.258 245.263 267.351 245.325 267.43 245.403C267.51 245.481 267.572 245.574 267.615 245.676C267.658 245.779 267.68 245.889 267.68 246V246Z" fill="#263238"/>
<path d="M261.74 245.189H263.46C263.681 245.192 263.892 245.282 264.048 245.439C264.203 245.596 264.29 245.808 264.29 246.029V304.029C264.29 304.489 263.97 304.669 263.57 304.439L261.63 303.319C261.42 303.183 261.245 302.998 261.12 302.781C260.995 302.564 260.923 302.32 260.91 302.069V245.999C260.918 245.784 261.008 245.579 261.163 245.428C261.317 245.277 261.524 245.192 261.74 245.189Z" fill="#37474F"/>
<path d="M224.27 225.76V226.51C224.306 227.19 224.485 227.855 224.795 228.461C225.105 229.068 225.54 229.602 226.07 230.03L262.49 255.43C263.041 255.785 263.675 255.99 264.33 256.024C264.984 256.057 265.636 255.918 266.22 255.62L312 229.16C312.563 228.797 313.031 228.306 313.367 227.727C313.702 227.148 313.895 226.498 313.93 225.83V225.06C313.899 224.405 313.699 223.769 313.348 223.215C312.998 222.661 312.509 222.208 311.93 221.9L266.89 201C266.257 200.751 265.58 200.639 264.901 200.67C264.222 200.701 263.557 200.875 262.95 201.18L226.19 222.42C225.631 222.787 225.165 223.281 224.832 223.861C224.498 224.441 224.306 225.091 224.27 225.76V225.76Z" fill="#37474F"/>
<path d="M226.19 222.42L263 201.18C263.607 200.875 264.272 200.701 264.951 200.67C265.63 200.639 266.307 200.751 266.94 201L312 221.9C313.12 222.42 313.16 223.33 312.09 223.9L266.22 250.4C265.637 250.7 264.985 250.84 264.329 250.807C263.674 250.773 263.04 250.567 262.49 250.21L226.07 224.84C225.846 224.72 225.661 224.539 225.536 224.318C225.411 224.097 225.351 223.845 225.364 223.592C225.376 223.338 225.461 223.093 225.607 222.886C225.753 222.678 225.955 222.517 226.19 222.42V222.42Z" fill="#455A64"/>
<path d="M288.29 307.12H278.83V323.32H288.29V307.12Z" fill="#FFA8A7"/>
<path d="M306.24 303.179L315.7 303.499L316.18 286.349L306.72 286.029L306.24 303.179Z" fill="#FFA8A7"/>
<path d="M288.3 319.07V317.39C289.3 317.82 293.76 327.29 297.84 331.01C301.09 334.01 306.84 338.01 306.65 340.83C306.47 344.45 301.31 346.06 296.85 345.01C293.37 344.19 288.4 342.08 286.01 339.51C283.62 336.94 282.85 333.51 281.61 331.86C280.37 330.21 277.49 328.3 276.82 326.35C276.45 325.28 276.89 322.93 277.41 320.95C277.88 319.13 278.41 317.13 279.02 317.3V318.42C279.77 319.25 281.83 320.07 284.16 320.16C285.67 320.22 288.31 320.22 288.3 319.07Z" fill="#263238"/>
<path d="M315.8 300.58C316.29 300.58 316.69 301.29 317.8 302.47C319.11 303.88 322.04 305.37 324.15 306.42C327.7 308.2 336.97 310.58 340.09 311.98C342.04 312.86 341.55 315.89 338.79 317.59C336.73 318.86 330.17 320.08 324.33 318.78C321.15 318.06 316.33 315.86 313.95 315.49C311.35 315.08 306.58 314.58 304.65 313.25C302.72 311.92 303.49 309.07 304.04 306.62C304.63 303.95 305.49 299.86 306.37 300.04V300.88C307.51 302.61 313.3 303.31 315.8 302.04V300.58Z" fill="#263238"/>
<path d="M240.71 208.58C238.64 223.21 241.43 226.02 255.33 240.03C262.81 247.56 274.85 258.61 274.85 258.61C274.85 258.61 274.68 263.28 274.58 273.76C274.49 282.98 278.35 313.01 278.35 313.01C278.35 313.01 284.63 315.65 288.94 312.91C288.94 312.91 290.89 290.57 291.94 278.91C293.37 263.13 294.11 255.22 293.31 251.82C292.6 248.82 278.45 230.97 275.18 225.95L305.25 243.42C304.666 247.846 304.372 252.305 304.37 256.77C304.7 269.3 306.24 294.31 306.24 294.31C306.24 294.31 313.13 297.39 316.54 294.73C316.54 294.73 325.21 240.03 325.21 235.54C325.21 228.72 295.58 208.36 289.97 203.61C286.77 200.91 283.2 198.02 283.2 198.02L240.71 208.58Z" fill="#F6AE2D"/>
<path opacity="0.3" d="M240.71 208.58C238.64 223.21 241.43 226.02 255.33 240.03C262.81 247.56 274.85 258.61 274.85 258.61C274.85 258.61 274.68 263.28 274.58 273.76C274.49 282.98 278.35 313.01 278.35 313.01C278.35 313.01 284.63 315.65 288.94 312.91C288.94 312.91 290.89 290.57 291.94 278.91C293.37 263.13 294.11 255.22 293.31 251.82C292.6 248.82 278.45 230.97 275.18 225.95L305.25 243.42C304.666 247.846 304.372 252.305 304.37 256.77C304.7 269.3 306.24 294.31 306.24 294.31C306.24 294.31 313.13 297.39 316.54 294.73C316.54 294.73 325.21 240.03 325.21 235.54C325.21 228.72 295.58 208.36 289.97 203.61C286.77 200.91 283.2 198.02 283.2 198.02L240.71 208.58Z" fill="black"/>
<path opacity="0.1" d="M275.18 226C278.347 223.446 280.729 220.049 282.05 216.2C281.889 218.711 281.531 221.205 280.98 223.66C280.17 226.91 305.25 243.47 305.25 243.47L275.18 226Z" fill="black"/>
<path d="M292.6 174.589C292.6 174.589 294.26 159.67 294.26 154.21C294.26 148.36 291.79 144.899 284.19 144.729C284.19 144.729 278.67 182.489 281.66 185.339C283.3 186.899 290.46 189.249 297.58 191.339L301.51 179.999C298.83 178.399 295.87 176.599 292.6 174.589Z" fill="#FFA8A7"/>
<path d="M283 144.17C283 144.17 289.28 144.33 292.07 147C294.86 149.67 294.93 151.95 294.64 156.88C294.35 161.81 293.37 174.6 293.37 174.6C293.37 174.6 288.65 179.06 278.05 178.6L283 144.17Z" fill="#E0E0E0"/>
<path d="M252.64 152.66C250.39 156.04 243.74 173.099 240.47 210.219C247.11 217.439 279.81 219.029 289.97 203.639C289.97 203.639 293.39 172.799 293.32 165.429C293.27 160.319 293.13 147.979 284.19 144.729H272.48L259.13 146.999C256.518 148.3 254.284 150.249 252.64 152.66V152.66Z" fill="#F5F5F5"/>
<path d="M271.7 115C271.574 117.655 272.239 120.288 273.61 122.565C274.981 124.843 276.996 126.663 279.401 127.795C281.806 128.927 284.493 129.321 287.121 128.926C289.75 128.531 292.203 127.365 294.169 125.577C296.135 123.788 297.527 121.456 298.168 118.877C298.809 116.297 298.671 113.585 297.771 111.084C296.871 108.583 295.25 106.405 293.112 104.825C290.974 103.246 288.415 102.335 285.76 102.21C283.997 102.125 282.234 102.389 280.573 102.986C278.912 103.583 277.384 104.502 276.078 105.69C274.773 106.878 273.714 108.311 272.962 109.909C272.211 111.506 271.782 113.236 271.7 115V115Z" fill="#263238"/>
<path d="M261.47 124.109C261.47 124.109 263.16 134.429 263.95 136.109C264.483 137.17 265.403 137.986 266.52 138.389L266.71 131.199L261.47 124.109Z" fill="#263238"/>
<path d="M264.89 109.6C264.133 109.476 263.358 109.526 262.623 109.746C261.889 109.966 261.214 110.35 260.65 110.87C258.78 112.61 259.5 118.39 261.47 124.11L265.54 124.77L264.89 109.6Z" fill="#263238"/>
<path d="M266.77 124.829C265.93 125.279 264.83 123.649 263.87 122.539C262.91 121.429 259.66 119.829 257.87 123.229C256.08 126.629 258.94 131.519 261.5 132.459C265.92 134.079 266.73 131.239 266.73 131.239L266.31 147.439C269.97 151.939 283.99 155.929 280.93 147.699L281.15 142.769C283.123 143.181 285.134 143.382 287.15 143.369C290.48 143.019 292.68 140.509 293.85 136.989C295.73 131.329 296.56 126.719 295.73 115.369C294.82 102.939 280.44 102.129 272.44 106.649C264.44 111.169 266.77 124.829 266.77 124.829Z" fill="#FFA8A7"/>
<path d="M266.71 126.21C266.34 126.02 264.84 123.52 263.87 122.54C262.51 121.19 264.87 109.6 264.87 109.6C264.547 108.571 264.531 107.471 264.824 106.434C265.117 105.396 265.707 104.467 266.52 103.76C267.946 102.271 269.741 101.185 271.721 100.612C273.702 100.04 275.799 100.001 277.8 100.5C281.376 101.307 284.991 101.935 288.63 102.38C292.426 102.805 296.268 102.35 299.86 101.05C300.166 103.076 299.924 105.148 299.16 107.05C298.35 108.83 296.999 110.31 295.3 111.28C293.38 112.39 291.43 113.06 287.42 113.22C282.483 113.5 277.534 112.966 272.77 111.64C271.26 111.36 270.86 112.82 269.85 116.82C269 120.28 269.9 127.92 266.71 126.21Z" fill="#263238"/>
<path d="M264.86 110.51L260 107.6C260.175 107.273 260.414 106.985 260.704 106.753C260.993 106.522 261.326 106.351 261.683 106.252C262.04 106.153 262.414 106.127 262.781 106.177C263.148 106.226 263.502 106.35 263.82 106.54C264.465 106.945 264.932 107.581 265.125 108.319C265.318 109.056 265.223 109.839 264.86 110.51V110.51Z" fill="#263238"/>
<path d="M281.13 142.77C281.13 142.77 273.83 140.94 271.32 139.45C269.845 138.589 268.663 137.303 267.93 135.76C268.248 137.285 268.871 138.731 269.76 140.01C271.52 142.51 281.04 144.73 281.04 144.73L281.13 142.77Z" fill="#F28F8F"/>
<path d="M253.08 319.41L169.14 270.95L326.67 180.04L410.6 228.5L253.08 319.41Z" fill="#455A64"/>
<path d="M169.14 270.95V367.87L173.56 370.42V304.11L248.66 347.47V413.78L253.08 416.33V319.41L169.14 270.95Z" fill="#263238"/>
<path d="M173.56 370.419L177.98 367.869V306.659L173.56 304.109V370.419Z" fill="black"/>
<path d="M253.08 416.33L257.5 413.78V347.47L406.19 261.66V327.97L410.6 325.42V228.5L253.08 319.41V416.33Z" fill="#37474F"/>
<path d="M406.19 327.97L401.77 325.42V264.21L406.19 261.66V327.97Z" fill="#263238"/>
<path d="M252.43 262.27L219 281.58C218.707 281.728 218.383 281.805 218.055 281.805C217.727 281.805 217.403 281.728 217.11 281.58L192.49 267.37C192.378 267.329 192.282 267.255 192.213 267.158C192.145 267.06 192.108 266.944 192.108 266.825C192.108 266.706 192.145 266.59 192.213 266.492C192.282 266.395 192.378 266.321 192.49 266.28L225.92 247C226.211 246.852 226.533 246.775 226.86 246.775C227.187 246.775 227.509 246.852 227.8 247L252.43 261.22C252.53 261.267 252.614 261.341 252.673 261.434C252.732 261.527 252.764 261.635 252.764 261.745C252.764 261.855 252.732 261.963 252.673 262.056C252.614 262.149 252.53 262.223 252.43 262.27Z" fill="#EBEBEB"/>
<path d="M227.8 247L251.18 260.5L219 279.06C218.707 279.208 218.383 279.285 218.055 279.285C217.727 279.285 217.403 279.208 217.11 279.06L193.73 265.56L225.92 247C226.211 246.852 226.533 246.775 226.86 246.775C227.187 246.775 227.509 246.852 227.8 247V247Z" fill="#E0E0E0"/>
<path d="M252.43 258.86L219 278.18C218.707 278.327 218.383 278.404 218.055 278.404C217.727 278.404 217.403 278.327 217.11 278.18L192.46 264C192.348 263.959 192.252 263.885 192.183 263.787C192.115 263.69 192.078 263.574 192.078 263.455C192.078 263.336 192.115 263.22 192.183 263.122C192.252 263.025 192.348 262.95 192.46 262.91L225.92 243.59C226.211 243.442 226.533 243.365 226.86 243.365C227.187 243.365 227.509 243.442 227.8 243.59L252.43 257.81C252.533 257.853 252.621 257.926 252.683 258.02C252.745 258.113 252.778 258.223 252.778 258.335C252.778 258.447 252.745 258.556 252.683 258.65C252.621 258.743 252.533 258.816 252.43 258.86Z" fill="#FAFAFA"/>
<path d="M279.91 224.86V224.49C279.928 224.164 280.022 223.846 280.185 223.563C280.349 223.279 280.576 223.039 280.85 222.86L336.4 190.79C336.691 190.642 337.013 190.565 337.34 190.565C337.667 190.565 337.989 190.642 338.28 190.79L349.65 197.35C349.924 197.529 350.152 197.769 350.315 198.053C350.478 198.336 350.572 198.653 350.59 198.98V199.36C350.572 199.686 350.478 200.004 350.315 200.287C350.152 200.571 349.924 200.811 349.65 200.99L294.11 233.06C293.817 233.208 293.493 233.285 293.165 233.285C292.837 233.285 292.513 233.208 292.22 233.06L280.85 226.49C280.576 226.311 280.349 226.071 280.185 225.787C280.022 225.504 279.928 225.186 279.91 224.86V224.86Z" fill="#E0E0E0"/>
<path d="M280.85 223.94L292.22 230.51C292.511 230.658 292.833 230.734 293.16 230.734C293.487 230.734 293.809 230.658 294.1 230.51L349.65 198.44C349.762 198.399 349.858 198.325 349.927 198.228C349.995 198.13 350.032 198.014 350.032 197.895C350.032 197.776 349.995 197.66 349.927 197.562C349.858 197.465 349.762 197.391 349.65 197.35L338.28 190.79C337.989 190.642 337.667 190.565 337.34 190.565C337.013 190.565 336.691 190.642 336.4 190.79L280.85 222.86C280.737 222.898 280.639 222.971 280.569 223.068C280.5 223.164 280.463 223.281 280.463 223.4C280.463 223.519 280.5 223.635 280.569 223.732C280.639 223.829 280.737 223.902 280.85 223.94Z" fill="#FAFAFA"/>
<path d="M333.08 198.26C332.08 196.65 326.77 191.93 325.73 190.96C324.69 189.99 320.16 189.33 316.19 188.09C312.56 186.41 307.8 183.75 301.51 180L297.58 191.32C303.47 193.03 309.35 194.55 312.07 195.32C314.36 196.2 314.28 196.88 316.15 197.94C319.61 199.94 321.87 199.52 321.87 199.52C322.898 200.496 323.99 201.401 325.14 202.23C327.6 203.91 330.06 205.23 333.08 204.23C336.39 203.15 334.06 199.88 333.08 198.26Z" fill="#FFA8A7"/>
<path d="M319.08 270.999C322.3 267.709 324.2 259.499 321.08 256.899H305.08C301.94 259.499 303.83 267.699 307.08 270.989L307.17 271.079C307.201 271.121 307.238 271.158 307.28 271.189C307.37 271.284 307.467 271.371 307.57 271.449L307.65 271.509C307.726 271.578 307.806 271.641 307.89 271.699L308.3 271.959C309.788 272.714 311.432 273.107 313.1 273.107C314.768 273.107 316.412 272.714 317.9 271.959V271.959C318.044 271.877 318.185 271.786 318.32 271.689L318.55 271.519L318.64 271.449L318.92 271.199L319.05 271.069L319.08 270.999Z" fill="#EBEBEB"/>
<path d="M306.46 255.849C302.81 257.949 302.81 261.369 306.46 263.469C308.506 264.509 310.77 265.051 313.065 265.051C315.361 265.051 317.624 264.509 319.67 263.469C323.31 261.369 323.31 257.949 319.67 255.849C317.624 254.81 315.361 254.268 313.065 254.268C310.77 254.268 308.506 254.81 306.46 255.849V255.849Z" fill="#FAFAFA"/>
<path d="M309 257.34C306.79 258.62 306.79 260.7 309 261.98C310.241 262.605 311.611 262.93 313 262.93C314.389 262.93 315.759 262.605 317 261.98C319.22 260.7 319.22 258.62 317 257.34C315.759 256.716 314.389 256.391 313 256.391C311.611 256.391 310.241 256.716 309 257.34V257.34Z" fill="#EBEBEB"/>
<path d="M317.08 259.539C315.839 258.915 314.469 258.59 313.08 258.59C311.691 258.59 310.321 258.915 309.08 259.539C308.547 259.836 308.091 260.254 307.75 260.759C308.066 261.263 308.494 261.687 309 261.999C310.241 262.624 311.611 262.949 313 262.949C314.389 262.949 315.759 262.624 317 261.999C317.537 261.709 317.994 261.29 318.33 260.779C318.019 260.271 317.59 259.846 317.08 259.539Z" fill="#E0E0E0"/>
<path d="M309.53 260.759C308.397 259.607 307.422 258.309 306.63 256.899C305.28 254.519 305.04 251.339 305.73 250.949C306.42 250.559 309.25 253.729 309.25 253.729C308.993 252.412 308.892 251.07 308.95 249.729C309.07 247.609 309.59 245.729 310.19 245.309C310.79 244.889 312.19 247.589 312.73 249.519C313.27 251.449 313.66 253.039 313.66 253.039C313.882 251.533 314.217 250.046 314.66 248.589C315.37 246.589 316 246.129 316.5 246.329C317 246.529 317.32 247.459 317.5 250.139C317.552 251.414 317.512 252.69 317.38 253.959C317.38 253.959 318.38 252.869 319.48 251.799C320.58 250.729 321.21 250.479 321.56 250.699C321.91 250.919 322 252.699 320.12 256.139C319.186 257.87 317.988 259.446 316.57 260.809C316.57 260.809 314 262.439 309.53 260.759Z" fill="#F6AE2D"/>
<path d="M296.85 286.55C296.949 286.506 297.035 286.437 297.098 286.349C297.161 286.261 297.2 286.158 297.21 286.05V285.28L260 264.28C259.732 264.142 259.436 264.07 259.135 264.07C258.834 264.07 258.538 264.142 258.27 264.28L224.83 283.58L263.42 305.85L296.85 286.55Z" fill="#F6AE2D"/>
<path opacity="0.2" d="M296.85 286.55C296.949 286.506 297.035 286.437 297.098 286.349C297.161 286.261 297.2 286.158 297.21 286.05V285.28L260 264.28C259.732 264.142 259.436 264.07 259.135 264.07C258.834 264.07 258.538 264.142 258.27 264.28L224.83 283.58L263.42 305.85L296.85 286.55Z" fill="black"/>
<path d="M296.85 285.8C296.954 285.763 297.043 285.696 297.107 285.606C297.17 285.517 297.204 285.41 297.204 285.3C297.204 285.19 297.17 285.083 297.107 284.993C297.043 284.904 296.954 284.836 296.85 284.8L260 263.53C259.732 263.392 259.436 263.32 259.135 263.32C258.834 263.32 258.538 263.392 258.27 263.53L224.83 282.83L263.42 305.1L296.85 285.8Z" fill="#F6AE2D"/>
<path opacity="0.5" d="M296.85 285.8C296.954 285.763 297.043 285.696 297.107 285.606C297.17 285.517 297.204 285.41 297.204 285.3C297.204 285.19 297.17 285.083 297.107 284.993C297.043 284.904 296.954 284.836 296.85 284.8L260 263.53C259.732 263.392 259.436 263.32 259.135 263.32C258.834 263.32 258.538 263.392 258.27 263.53L224.83 282.83L263.42 305.1L296.85 285.8Z" fill="black"/>
<path d="M232.53 277.79L257.28 263.5C257.551 263.369 257.849 263.301 258.15 263.301C258.451 263.301 258.749 263.369 259.02 263.5L293.02 283.12L296.24 281.25V285.06H296.18C296.29 285.29 296.18 285.55 295.89 285.73L267.53 302.1L228.94 279.83V275.67L232.53 277.79Z" fill="#EBEBEB"/>
<path d="M295.87 281.61C295.974 281.573 296.063 281.505 296.127 281.416C296.19 281.326 296.224 281.219 296.224 281.11C296.224 281 296.19 280.893 296.127 280.803C296.063 280.714 295.974 280.646 295.87 280.61L259 259.34C258.731 259.202 258.433 259.13 258.13 259.13C257.828 259.13 257.529 259.202 257.26 259.34L228.9 275.71L267.51 298L295.87 281.61Z" fill="#FAFAFA"/>
<path d="M267.51 297.97V302.14L228.92 279.87V275.71L267.51 297.97Z" fill="#E6E6E6"/>
<path d="M267.05 296.34C267.15 296.393 267.258 296.43 267.37 296.45C267.537 296.494 267.713 296.494 267.88 296.45C267.937 296.44 267.991 296.42 268.04 296.39C268.3 296.25 268.27 295.99 267.97 295.82C267.831 295.745 267.677 295.701 267.52 295.69C267.335 295.665 267.147 295.697 266.98 295.78C266.964 295.775 266.946 295.775 266.93 295.78C266.73 296 266.77 296.18 267.05 296.34Z" fill="#263238"/>
<path d="M262.68 299.6C262.657 300.116 262.812 300.624 263.12 301.04C263.268 301.227 263.456 301.377 263.671 301.479C263.886 301.582 264.122 301.633 264.36 301.63V301.63C264.785 301.618 265.199 301.494 265.56 301.27L265.78 301.14L265.29 300.86C264.11 301.52 263.17 300.96 263.17 299.6C263.211 298.857 263.426 298.134 263.798 297.49C264.17 296.845 264.688 296.297 265.31 295.89C265.539 295.715 265.815 295.613 266.103 295.599C266.39 295.585 266.675 295.658 266.92 295.81C267.137 295.965 267.293 296.191 267.36 296.45C267.527 296.494 267.703 296.494 267.87 296.45C267.812 296.171 267.689 295.911 267.51 295.69C267.362 295.505 267.173 295.356 266.958 295.255C266.743 295.155 266.507 295.105 266.27 295.11C265.841 295.125 265.424 295.253 265.06 295.48C264.362 295.926 263.782 296.533 263.368 297.25C262.954 297.967 262.718 298.773 262.68 299.6V299.6Z" fill="#263238"/>
<path d="M263.93 295.669L297.21 279.399V279.999C297.199 280.149 297.155 280.293 297.08 280.423C297.006 280.553 296.903 280.665 296.78 280.749L263.93 296.469V295.669Z" fill="#F6AE2D"/>
<path opacity="0.2" d="M263.93 295.669L297.21 279.399V279.999C297.199 280.149 297.155 280.293 297.08 280.423C297.006 280.553 296.903 280.665 296.78 280.749L263.93 296.469V295.669Z" fill="black"/>
<path d="M296.85 279.899C297.33 279.619 297.33 279.169 296.85 278.899L260 257.629C259.732 257.492 259.436 257.42 259.135 257.42C258.834 257.42 258.538 257.492 258.27 257.629L224.83 273.679L263.42 295.999L296.85 279.899Z" fill="#F6AE2D"/>
<path d="M263.42 305.85L224.83 283.58V273.67L263.42 295.95V305.85Z" fill="#F6AE2D"/>
<path opacity="0.1" d="M263.42 305.85L224.83 283.58V273.67L263.42 295.95V305.85Z" fill="black"/>
<path d="M255.81 299.49C256.049 299.493 256.286 299.441 256.503 299.339C256.719 299.237 256.91 299.087 257.06 298.9C257.362 298.482 257.517 297.976 257.5 297.46C257.457 296.628 257.216 295.818 256.799 295.096C256.382 294.375 255.8 293.763 255.1 293.31C254.736 293.084 254.318 292.96 253.89 292.95C252.89 292.95 252.21 293.77 252.21 294.95C252.25 295.782 252.488 296.592 252.903 297.314C253.319 298.036 253.901 298.648 254.6 299.1C254.965 299.325 255.382 299.449 255.81 299.46V299.49Z" fill="#455A64"/>
<path d="M257 297.46C257 298.83 256 299.38 254.85 298.7C254.227 298.291 253.709 297.741 253.337 297.095C252.965 296.449 252.751 295.724 252.71 294.98C252.71 293.62 253.71 293.06 254.85 293.75C255.473 294.158 255.992 294.706 256.365 295.35C256.739 295.994 256.956 296.717 257 297.46V297.46Z" fill="#F5F5F5"/>
<path d="M249.22 292.48V293.23C249.22 294.73 248.16 295.34 246.86 294.59L230.14 284.94C229.455 284.492 228.884 283.889 228.474 283.18C228.064 282.472 227.827 281.677 227.78 280.86V280.11C227.78 278.61 228.84 278 230.14 278.75L246.86 288.4C247.546 288.847 248.117 289.449 248.527 290.158C248.937 290.867 249.174 291.662 249.22 292.48Z" fill="#F5F5F5"/>
<path d="M263.94 305.56V295.7L263.42 295.95V305.85L263.94 305.56Z" fill="#F6AE2D"/>
<path opacity="0.2" d="M263.94 305.56V295.7L263.42 295.95V305.85L263.94 305.56Z" fill="black"/>
<path d="M225.19 272.13C225.202 272.25 225.241 272.366 225.305 272.469C225.37 272.571 225.457 272.657 225.56 272.72L263.41 294.55C263.526 294.609 263.655 294.64 263.785 294.64C263.915 294.64 264.044 294.609 264.16 294.55L298.07 277.4V276.64L259.49 254.37L225.56 271.53C225.457 271.595 225.369 271.683 225.305 271.787C225.241 271.891 225.202 272.009 225.19 272.13V272.13Z" fill="#F6AE2D"/>
<path opacity="0.1" d="M263.78 293.889V294.639C263.648 294.642 263.517 294.611 263.4 294.549L225.57 272.729C225.465 272.665 225.376 272.578 225.31 272.474C225.244 272.37 225.203 272.252 225.19 272.129C225.202 272.007 225.243 271.888 225.309 271.784C225.375 271.68 225.464 271.593 225.57 271.529C225.36 271.649 225.36 271.839 225.57 271.959L263.4 293.799C263.515 293.865 263.647 293.897 263.78 293.889V293.889Z" fill="black"/>
<path opacity="0.5" d="M298.07 276.64L264.16 293.8C264.044 293.865 263.913 293.896 263.78 293.89C263.647 293.897 263.515 293.866 263.4 293.8L225.57 272C225.36 271.88 225.36 271.69 225.57 271.57L259.5 254.41L298.07 276.64Z" fill="black"/>
<path opacity="0.2" d="M298.07 276.64V277.4L264.16 294.55C264.044 294.615 263.913 294.646 263.78 294.64V293.89C263.913 293.896 264.044 293.865 264.16 293.8L298.07 276.64Z" fill="black"/>
<path d="M297.56 276.94L258.96 254.68V244.76L297.56 267.14V276.94Z" fill="#F6AE2D"/>
<path opacity="0.7" d="M297.56 276.94L258.96 254.68V244.76L297.56 267.14V276.94Z" fill="black"/>
<path d="M225.66 266.79C225.522 266.88 225.406 267.001 225.323 267.143C225.24 267.286 225.191 267.446 225.18 267.61V269.61C225.187 269.774 225.235 269.934 225.319 270.075C225.402 270.217 225.52 270.335 225.66 270.42L263.31 292.14C263.455 292.217 263.616 292.258 263.78 292.258C263.944 292.258 264.105 292.217 264.25 292.14L293 276.6V273.51L254.42 251.24L225.66 266.79Z" fill="#EBEBEB"/>
<path d="M254.42 251.24L225.66 266.79C225.602 266.81 225.552 266.846 225.517 266.896C225.481 266.945 225.462 267.004 225.462 267.065C225.462 267.126 225.481 267.185 225.517 267.235C225.552 267.284 225.602 267.321 225.66 267.34L263.31 289.06C263.455 289.137 263.616 289.178 263.78 289.178C263.944 289.178 264.105 289.137 264.25 289.06L293 273.51L254.42 251.24Z" fill="#FAFAFA"/>
<path d="M289.34 273.76C289.44 273.813 289.548 273.85 289.66 273.87C289.827 273.914 290.003 273.914 290.17 273.87C290.227 273.86 290.281 273.84 290.33 273.81C290.59 273.67 290.56 273.41 290.26 273.24C290.121 273.165 289.967 273.121 289.81 273.11C289.625 273.085 289.437 273.117 289.27 273.2C289 273.38 289.06 273.6 289.34 273.76Z" fill="#263238"/>
<path d="M263.78 289.16V292.26C263.613 292.264 263.448 292.226 263.3 292.15L225.65 270.44C225.516 270.347 225.405 270.225 225.325 270.083C225.245 269.941 225.199 269.782 225.19 269.62V267.62C225.205 267.34 225.331 267.077 225.54 266.89C225.4 267.03 225.44 267.22 225.65 267.35L263.3 289.06C263.447 289.139 263.614 289.174 263.78 289.16Z" fill="#E6E6E6"/>
<path d="M294.37 269.469C294.066 269.308 293.723 269.234 293.38 269.253C293.036 269.272 292.704 269.385 292.42 269.579C291.084 270.525 290.138 271.926 289.76 273.519L290.4 273.619C290.744 272.216 291.573 270.98 292.74 270.129C292.987 269.984 293.264 269.898 293.55 269.879C293.723 269.877 293.894 269.926 294.04 270.019C294.344 270.289 294.574 270.631 294.709 271.015C294.843 271.398 294.878 271.809 294.81 272.209C294.75 274.269 293.58 276.589 292.19 277.389C291.893 277.579 291.541 277.663 291.19 277.629L290.49 278.029C290.738 278.176 291.022 278.252 291.31 278.249C291.71 278.24 292.101 278.122 292.44 277.909C294.02 276.999 295.31 274.489 295.38 272.199C295.457 271.696 295.405 271.181 295.228 270.704C295.052 270.226 294.756 269.801 294.37 269.469Z" fill="#263238"/>
<path d="M225.19 265.83C225.202 265.952 225.241 266.069 225.305 266.173C225.369 266.277 225.457 266.365 225.56 266.43L263.41 288.26C263.526 288.319 263.655 288.35 263.785 288.35C263.915 288.35 264.044 288.319 264.16 288.26L298.07 267.53V266.78L259.49 244.5L225.56 265.24C225.457 265.303 225.37 265.389 225.305 265.491C225.241 265.594 225.202 265.71 225.19 265.83V265.83Z" fill="#F6AE2D"/>
<path opacity="0.1" d="M263.78 287.589V288.339C263.649 288.34 263.52 288.313 263.4 288.259L225.57 266.429C225.455 266.377 225.358 266.292 225.289 266.186C225.221 266.08 225.185 265.956 225.185 265.829C225.185 265.703 225.221 265.579 225.289 265.473C225.358 265.367 225.455 265.282 225.57 265.229C225.523 265.244 225.482 265.273 225.452 265.313C225.423 265.352 225.407 265.4 225.407 265.449C225.407 265.499 225.423 265.547 225.452 265.586C225.482 265.626 225.523 265.655 225.57 265.669L263.4 287.509C263.518 287.567 263.649 287.595 263.78 287.589V287.589Z" fill="black"/>
<path d="M298.07 266.78L264.16 287.51C264.042 287.567 263.911 287.595 263.78 287.59C263.649 287.595 263.518 287.568 263.4 287.51L225.57 265.67C225.523 265.656 225.482 265.626 225.452 265.587C225.423 265.547 225.407 265.499 225.407 265.45C225.407 265.401 225.423 265.353 225.452 265.313C225.482 265.274 225.523 265.244 225.57 265.23L259.5 244.5L298.07 266.78Z" fill="#F6AE2D"/>
<path opacity="0.2" d="M298.07 266.779V267.529L264.16 288.259C264.042 288.316 263.911 288.344 263.78 288.339V287.589C263.911 287.594 264.042 287.566 264.16 287.509L298.07 266.779Z" fill="black"/>
<path d="M298.07 276.64V266.79L297.56 267.14V276.94L298.07 276.64Z" fill="#F6AE2D"/>
<path opacity="0.2" d="M298.07 276.64V266.79L297.56 267.14V276.94L298.07 276.64Z" fill="black"/>
<path d="M296.85 266.63C296.949 266.586 297.035 266.516 297.098 266.429C297.161 266.341 297.2 266.238 297.21 266.13V265.36L260 244.36C259.73 244.23 259.434 244.163 259.135 244.163C258.836 244.163 258.54 244.23 258.27 244.36L224.83 263.67L263.42 285.94L296.85 266.63Z" fill="#F6AE2D"/>
<path opacity="0.2" d="M296.85 266.63C296.949 266.586 297.035 266.516 297.098 266.429C297.161 266.341 297.2 266.238 297.21 266.13V265.36L260 244.36C259.73 244.23 259.434 244.163 259.135 244.163C258.836 244.163 258.54 244.23 258.27 244.36L224.83 263.67L263.42 285.94L296.85 266.63Z" fill="black"/>
<path d="M296.85 265.88C297.33 265.6 297.33 265.15 296.85 264.88L260 243.6C259.73 243.471 259.434 243.403 259.135 243.403C258.836 243.403 258.54 243.471 258.27 243.6L224.83 262.91L263.42 285.18L296.85 265.88Z" fill="#F6AE2D"/>
<path opacity="0.5" d="M296.85 265.88C297.33 265.6 297.33 265.15 296.85 264.88L260 243.6C259.73 243.471 259.434 243.403 259.135 243.403C258.836 243.403 258.54 243.471 258.27 243.6L224.83 262.91L263.42 285.18L296.85 265.88Z" fill="black"/>
<path d="M232.53 257.87L257.28 243.58C257.549 243.442 257.848 243.37 258.15 243.37C258.453 243.37 258.751 243.442 259.02 243.58L293.02 263.2L296.24 261.32V265.14H296.18C296.206 265.203 296.219 265.272 296.219 265.34C296.218 265.409 296.204 265.477 296.177 265.54C296.15 265.604 296.111 265.661 296.061 265.709C296.012 265.757 295.954 265.794 295.89 265.82L267.53 282.18L228.92 260V255.83L232.53 257.87Z" fill="#EBEBEB"/>
<path d="M295.87 261.69C295.974 261.654 296.063 261.586 296.127 261.496C296.19 261.407 296.224 261.3 296.224 261.19C296.224 261.08 296.19 260.973 296.127 260.884C296.063 260.794 295.974 260.726 295.87 260.69L259 239.41C258.729 239.279 258.431 239.211 258.13 239.211C257.829 239.211 257.531 239.279 257.26 239.41L228.9 255.78L267.49 278.05L295.87 261.69Z" fill="#FAFAFA"/>
<path d="M267.51 278.049V282.209L228.92 259.949V255.779L267.51 278.049Z" fill="#E6E6E6"/>
<path d="M267.05 276.42C267.15 276.473 267.258 276.51 267.37 276.53C267.537 276.574 267.713 276.574 267.88 276.53C267.937 276.52 267.991 276.5 268.04 276.47C268.3 276.33 268.27 276.07 267.97 275.9C267.831 275.825 267.677 275.781 267.52 275.77C267.335 275.745 267.147 275.777 266.98 275.86C266.964 275.855 266.946 275.855 266.93 275.86C266.73 276 266.77 276.26 267.05 276.42Z" fill="#263238"/>
<path d="M262.68 279.68C262.657 280.196 262.812 280.705 263.12 281.12C263.268 281.307 263.456 281.457 263.671 281.56C263.886 281.662 264.122 281.713 264.36 281.71C264.785 281.698 265.199 281.574 265.56 281.35L265.78 281.22L265.29 280.94C264.11 281.6 263.17 281.04 263.17 279.68C263.211 278.937 263.426 278.214 263.798 277.57C264.17 276.925 264.688 276.377 265.31 275.97C265.539 275.795 265.815 275.693 266.103 275.679C266.39 275.665 266.675 275.738 266.92 275.89C267.137 276.045 267.293 276.271 267.36 276.53C267.527 276.574 267.703 276.574 267.87 276.53C267.812 276.251 267.689 275.991 267.51 275.77C267.362 275.585 267.173 275.436 266.958 275.335C266.743 275.235 266.507 275.185 266.27 275.19C265.842 275.201 265.425 275.325 265.06 275.55C264.363 275.999 263.783 276.608 263.369 277.326C262.955 278.044 262.719 278.851 262.68 279.68V279.68Z" fill="#263238"/>
<path d="M263.93 275.739L297.21 259.479V259.999C297.199 260.149 297.155 260.294 297.08 260.423C297.006 260.553 296.903 260.665 296.78 260.749L263.93 276.499V275.739Z" fill="#F6AE2D"/>
<path opacity="0.2" d="M263.93 275.739L297.21 259.479V259.999C297.199 260.149 297.155 260.294 297.08 260.423C297.006 260.553 296.903 260.665 296.78 260.749L263.93 276.499V275.739Z" fill="black"/>
<path d="M296.85 260C297.33 259.73 297.33 259.28 296.85 259L260 237.7C259.73 237.57 259.434 237.503 259.135 237.503C258.836 237.503 258.54 237.57 258.27 237.7L224.83 253.76L263.42 276L296.85 260Z" fill="#F6AE2D"/>
<path d="M263.42 285.93L224.83 263.66V253.74L263.42 276.03V285.93Z" fill="#F6AE2D"/>
<path opacity="0.1" d="M263.42 285.93L224.83 263.66V253.74L263.42 276.03V285.93Z" fill="black"/>
<path d="M255.81 279.569C256.049 279.572 256.286 279.52 256.503 279.418C256.719 279.316 256.91 279.166 257.06 278.979C257.362 278.561 257.517 278.055 257.5 277.539C257.457 276.707 257.216 275.897 256.799 275.176C256.382 274.454 255.8 273.842 255.1 273.389C254.736 273.163 254.318 273.039 253.89 273.029C252.89 273.029 252.21 273.849 252.21 275.029C252.25 275.861 252.488 276.672 252.903 277.393C253.319 278.115 253.901 278.727 254.6 279.179C254.965 279.404 255.382 279.528 255.81 279.539V279.569Z" fill="#455A64"/>
<path d="M257 277.54C257 278.9 256 279.46 254.85 278.77C254.227 278.363 253.708 277.815 253.336 277.171C252.964 276.526 252.75 275.803 252.71 275.06C252.71 273.69 253.71 273.14 254.85 273.82C255.473 274.23 255.991 274.78 256.364 275.426C256.738 276.071 256.955 276.795 257 277.54V277.54Z" fill="#F5F5F5"/>
<path d="M249.22 272.559V273.309C249.22 274.809 248.16 275.419 246.86 274.669L230.14 264.999C229.453 264.553 228.881 263.951 228.471 263.242C228.061 262.533 227.824 261.737 227.78 260.919V260.169C227.78 258.669 228.84 258.059 230.14 258.819L246.86 268.469C247.547 268.918 248.119 269.522 248.529 270.232C248.939 270.943 249.176 271.74 249.22 272.559V272.559Z" fill="#F5F5F5"/>
<path d="M263.94 285.63V275.77L263.42 276.03V285.93L263.94 285.63Z" fill="#F6AE2D"/>
<path opacity="0.2" d="M263.94 285.63V275.77L263.42 276.03V285.93L263.94 285.63Z" fill="black"/>
<path d="M225.19 251.609C225.202 251.731 225.241 251.848 225.305 251.952C225.369 252.056 225.457 252.144 225.56 252.209L263.41 273.999C263.526 274.058 263.655 274.089 263.785 274.089C263.915 274.089 264.044 274.058 264.16 273.999L298.07 256.849V256.089L259.49 233.819L225.56 250.999C225.455 251.065 225.367 251.155 225.303 251.261C225.239 251.367 225.2 251.486 225.19 251.609V251.609Z" fill="#F6AE2D"/>
<path opacity="0.1" d="M263.78 273.38V274.13C263.648 274.127 263.519 274.096 263.4 274.04L225.57 252.21C225.458 252.156 225.363 252.071 225.297 251.966C225.231 251.861 225.196 251.739 225.196 251.615C225.196 251.49 225.231 251.368 225.297 251.263C225.363 251.158 225.458 251.073 225.57 251.02C225.36 251.14 225.36 251.33 225.57 251.45L263.4 273.29C263.517 273.351 263.648 273.382 263.78 273.38Z" fill="black"/>
<path opacity="0.5" d="M298.07 256.129L264.16 273.289C264.042 273.35 263.912 273.38 263.78 273.379C263.648 273.382 263.517 273.351 263.4 273.289L225.57 251.449C225.36 251.329 225.36 251.139 225.57 251.019L259.5 233.859L298.07 256.129Z" fill="black"/>
<path opacity="0.2" d="M298.07 256.13V256.89L264.16 274C264.044 274.065 263.913 274.096 263.78 274.09V273.34C263.912 273.341 264.042 273.31 264.16 273.25L298.07 256.13Z" fill="black"/>
<path d="M297.56 256.43L258.96 234.17V224.25L297.56 246.63V256.43Z" fill="#F6AE2D"/>
<path opacity="0.7" d="M297.56 256.43L258.96 234.17V224.25L297.56 246.63V256.43Z" fill="black"/>
<path d="M225.66 246.28C225.522 246.37 225.406 246.491 225.323 246.633C225.24 246.775 225.191 246.935 225.18 247.1V249.1C225.191 249.264 225.24 249.424 225.323 249.567C225.406 249.709 225.522 249.83 225.66 249.92L263.31 271.64C263.455 271.717 263.616 271.757 263.78 271.757C263.944 271.757 264.105 271.717 264.25 271.64L293 256.09V253L254.42 230.72L225.66 246.28Z" fill="#EBEBEB"/>
<path d="M254.42 230.72L225.66 246.28C225.601 246.296 225.549 246.331 225.511 246.38C225.474 246.429 225.454 246.488 225.454 246.55C225.454 246.611 225.474 246.671 225.511 246.719C225.549 246.768 225.601 246.803 225.66 246.82L263.31 268.55C263.455 268.627 263.616 268.667 263.78 268.667C263.944 268.667 264.105 268.627 264.25 268.55L293 253L254.42 230.72Z" fill="#FAFAFA"/>
<path d="M289.34 253.25C289.44 253.303 289.548 253.34 289.66 253.36C289.827 253.404 290.003 253.404 290.17 253.36C290.227 253.35 290.281 253.33 290.33 253.3C290.59 253.16 290.56 252.9 290.26 252.73C290.121 252.655 289.967 252.611 289.81 252.6C289.625 252.576 289.437 252.607 289.27 252.69C289 252.87 289.06 253.09 289.34 253.25Z" fill="#263238"/>
<path d="M263.78 268.65V271.75C263.613 271.754 263.448 271.716 263.3 271.64L225.65 249.92C225.513 249.832 225.4 249.713 225.32 249.572C225.24 249.431 225.195 249.272 225.19 249.11V247.11C225.194 246.971 225.228 246.834 225.288 246.708C225.348 246.582 225.434 246.47 225.54 246.38C225.4 246.52 225.44 246.7 225.65 246.83L263.3 268.55C263.447 268.63 263.614 268.664 263.78 268.65Z" fill="#E6E6E6"/>
<path d="M294.37 249C294.065 248.841 293.722 248.768 293.378 248.789C293.035 248.81 292.703 248.924 292.42 249.12C291.084 250.066 290.138 251.467 289.76 253.06L290.4 253.16C290.741 251.756 291.571 250.519 292.74 249.67C292.985 249.52 293.263 249.434 293.55 249.42C293.722 249.421 293.891 249.466 294.04 249.55C294.344 249.822 294.574 250.166 294.709 250.551C294.843 250.936 294.878 251.348 294.81 251.75C294.75 253.81 293.58 256.13 292.19 256.93C291.893 257.119 291.541 257.204 291.19 257.17L290.49 257.57C290.74 257.713 291.022 257.788 291.31 257.79C291.71 257.78 292.101 257.663 292.44 257.45C294.02 256.54 295.31 254.03 295.38 251.74C295.459 251.235 295.408 250.719 295.231 250.239C295.054 249.76 294.758 249.333 294.37 249Z" fill="#263238"/>
<path d="M225.19 245.32C225.202 245.44 225.241 245.556 225.305 245.659C225.37 245.761 225.457 245.847 225.56 245.91L263.41 267.74C263.526 267.799 263.655 267.83 263.785 267.83C263.915 267.83 264.044 267.799 264.16 267.74L298.07 247V246.24L259.49 224L225.56 244.73C225.458 244.794 225.372 244.88 225.307 244.983C225.243 245.085 225.203 245.2 225.19 245.32V245.32Z" fill="#F6AE2D"/>
<path opacity="0.1" d="M263.78 267.08V267.83C263.648 267.832 263.517 267.801 263.4 267.74L225.57 245.92C225.465 245.856 225.376 245.768 225.31 245.664C225.244 245.56 225.203 245.442 225.19 245.32C225.202 245.197 225.243 245.079 225.309 244.975C225.375 244.87 225.464 244.783 225.57 244.72C225.36 244.84 225.36 245.04 225.57 245.15L263.4 267C263.516 267.062 263.648 267.09 263.78 267.08V267.08Z" fill="black"/>
<path d="M298.07 246.26L264.16 267C264.044 267.065 263.913 267.096 263.78 267.09C263.647 267.097 263.515 267.066 263.4 267L225.57 245.16C225.36 245.05 225.36 244.85 225.57 244.73L259.5 224L298.07 246.26Z" fill="#F6AE2D"/>
<path opacity="0.2" d="M298.07 246.26V247L264.16 267.72C264.044 267.785 263.913 267.816 263.78 267.81V267.06C263.913 267.066 264.044 267.035 264.16 266.97L298.07 246.26Z" fill="black"/>
<path d="M298.07 256.129V246.279L297.56 246.629V256.429L298.07 256.129Z" fill="#F6AE2D"/>
<path opacity="0.2" d="M298.07 256.129V246.279L297.56 246.629V256.429L298.07 256.129Z" fill="black"/>
<path d="M296.85 246.11C296.949 246.069 297.035 246.001 297.098 245.915C297.161 245.829 297.2 245.727 297.21 245.62V244.85L260 223.85C259.73 223.721 259.434 223.653 259.135 223.653C258.836 223.653 258.54 223.721 258.27 223.85L224.83 243.16L263.42 265.42L296.85 246.11Z" fill="#F6AE2D"/>
<path opacity="0.2" d="M296.85 246.11C296.949 246.069 297.035 246.001 297.098 245.915C297.161 245.829 297.2 245.727 297.21 245.62V244.85L260 223.85C259.73 223.721 259.434 223.653 259.135 223.653C258.836 223.653 258.54 223.721 258.27 223.85L224.83 243.16L263.42 265.42L296.85 246.11Z" fill="black"/>
<path d="M296.85 245.359C297.33 245.089 297.33 244.639 296.85 244.359L260 223.089C259.73 222.96 259.434 222.893 259.135 222.893C258.836 222.893 258.54 222.96 258.27 223.089L224.83 242.399L263.42 264.659L296.85 245.359Z" fill="#F6AE2D"/>
<path opacity="0.5" d="M296.85 245.359C297.33 245.089 297.33 244.639 296.85 244.359L260 223.089C259.73 222.96 259.434 222.893 259.135 222.893C258.836 222.893 258.54 222.96 258.27 223.089L224.83 242.399L263.42 264.659L296.85 245.359Z" fill="black"/>
<path d="M232.53 237.35L257.28 223.07C257.549 222.932 257.848 222.86 258.15 222.86C258.453 222.86 258.751 222.932 259.02 223.07L293.02 242.69L296.24 240.81V244.63H296.18C296.29 244.87 296.18 245.12 295.89 245.31L267.51 261.7L228.92 239.44V235.27L232.53 237.35Z" fill="#EBEBEB"/>
<path d="M295.87 241.17C295.974 241.134 296.063 241.066 296.127 240.976C296.19 240.887 296.224 240.78 296.224 240.67C296.224 240.56 296.19 240.453 296.127 240.364C296.063 240.274 295.974 240.206 295.87 240.17L259 218.9C258.731 218.762 258.433 218.69 258.13 218.69C257.828 218.69 257.529 218.762 257.26 218.9L228.9 235.27L267.49 257.54L295.87 241.17Z" fill="#FAFAFA"/>
<path d="M267.51 257.54V261.7L228.92 239.44V235.27L267.51 257.54Z" fill="#E6E6E6"/>
<path d="M267.05 255.91C267.15 255.963 267.258 256 267.37 256.02C267.537 256.064 267.713 256.064 267.88 256.02C267.921 256.019 267.961 256.012 268 256C268.26 255.86 268.23 255.6 267.93 255.43C267.791 255.355 267.638 255.311 267.48 255.3C267.295 255.276 267.107 255.307 266.94 255.39C266.924 255.386 266.906 255.386 266.89 255.39C266.73 255.53 266.77 255.75 267.05 255.91Z" fill="#263238"/>
<path d="M262.68 259.17C262.657 259.686 262.812 260.195 263.12 260.61C263.268 260.797 263.456 260.947 263.671 261.05C263.886 261.152 264.122 261.204 264.36 261.2V261.2C264.785 261.188 265.199 261.064 265.56 260.84L265.78 260.71L265.29 260.43C264.11 261.09 263.17 260.53 263.17 259.17C263.211 258.427 263.426 257.705 263.798 257.06C264.17 256.416 264.688 255.868 265.31 255.46C265.539 255.285 265.815 255.184 266.103 255.169C266.39 255.155 266.675 255.229 266.92 255.38C267.137 255.535 267.293 255.762 267.36 256.02C267.527 256.064 267.703 256.064 267.87 256.02C267.812 255.742 267.689 255.481 267.51 255.26C267.362 255.075 267.173 254.926 266.958 254.826C266.743 254.725 266.507 254.675 266.27 254.68C265.842 254.691 265.425 254.815 265.06 255.04C264.363 255.489 263.783 256.098 263.369 256.816C262.955 257.535 262.719 258.342 262.68 259.17V259.17Z" fill="#263238"/>
<path d="M263.93 255.23L297.21 239V239.54C297.199 239.689 297.155 239.834 297.08 239.964C297.006 240.094 296.903 240.205 296.78 240.29L263.93 256V255.23Z" fill="#F6AE2D"/>
<path opacity="0.2" d="M263.93 255.23L297.21 239V239.54C297.199 239.689 297.155 239.834 297.08 239.964C297.006 240.094 296.903 240.205 296.78 240.29L263.93 256V255.23Z" fill="black"/>
<path d="M296.85 239.46C297.33 239.19 297.33 238.74 296.85 238.46L260 217.19C259.732 217.052 259.436 216.98 259.135 216.98C258.834 216.98 258.538 217.052 258.27 217.19L224.83 233.24L263.42 255.51L296.85 239.46Z" fill="#F6AE2D"/>
<path d="M263.42 265.41L224.83 243.149V233.229L263.42 255.509V265.41Z" fill="#F6AE2D"/>
<path opacity="0.1" d="M263.42 265.41L224.83 243.149V233.229L263.42 255.509V265.41Z" fill="black"/>
<path d="M255.81 259.05C256.049 259.052 256.286 259.001 256.503 258.898C256.719 258.796 256.91 258.646 257.06 258.46C257.363 258.042 257.518 257.535 257.5 257.02C257.457 256.188 257.218 255.379 256.8 254.66C256.383 253.94 255.8 253.329 255.1 252.88C254.736 252.654 254.318 252.529 253.89 252.52C252.89 252.52 252.21 253.33 252.21 254.52C252.248 255.35 252.485 256.16 252.901 256.88C253.317 257.601 253.9 258.211 254.6 258.66C254.965 258.884 255.382 259.008 255.81 259.02V259.05Z" fill="#455A64"/>
<path d="M257 256.999C257 258.369 256 258.919 254.85 258.239C254.227 257.833 253.708 257.285 253.336 256.64C252.964 255.996 252.75 255.272 252.71 254.529C252.71 253.159 253.71 252.609 254.85 253.289C255.473 253.698 255.991 254.246 256.364 254.89C256.738 255.534 256.955 256.256 257 256.999V256.999Z" fill="#F5F5F5"/>
<path d="M249.22 252.05V252.8C249.22 254.3 248.16 254.91 246.86 254.16L230.14 244.5C229.454 244.053 228.883 243.45 228.473 242.742C228.063 242.033 227.826 241.238 227.78 240.42V239.67C227.78 238.17 228.84 237.56 230.14 238.31L246.86 248C247.543 248.443 248.112 249.041 248.522 249.744C248.932 250.448 249.171 251.237 249.22 252.05V252.05Z" fill="#F5F5F5"/>
<path d="M263.94 265.12V255.26L263.42 255.51V265.41L263.94 265.12Z" fill="#F6AE2D"/>
<path opacity="0.2" d="M263.94 265.12V255.26L263.42 255.51V265.41L263.94 265.12Z" fill="black"/>
<path d="M278.55 215.73C272.55 213.99 251.17 208 244.67 205.9C240.14 204.43 237.67 203.39 237.58 199.48C237.46 195.84 242.86 166.03 244.81 158.68C246.53 152.24 253.31 147.37 259.13 147C261.08 153.44 262.05 168 256.93 172.52C255.03 180.09 252.81 193.86 252.81 193.86C252.81 193.86 263.76 199.55 272.45 203.74C276.79 205.83 282.6 207.74 286.06 208.1C288.81 208.39 293.74 209.68 294.79 210.65C297.321 213.221 299.68 215.957 301.85 218.84C302.85 220.45 305.16 223.72 301.85 224.77C298.85 225.72 296.37 224.43 293.91 222.77C292.758 221.94 291.663 221.035 290.63 220.06C288.179 220.327 285.705 219.839 283.54 218.66C281.67 217.57 278.55 215.73 278.55 215.73Z" fill="#FFA8A7"/>
<path d="M387.58 219.42L391.58 171.27C391.62 170.487 391.457 169.707 391.107 169.006C390.756 168.305 390.23 167.707 389.58 167.27C388.868 166.921 388.083 166.746 387.29 166.76C386.497 166.773 385.719 166.976 385.02 167.35L332.3 197.79C331.603 198.244 331.012 198.842 330.567 199.544C330.122 200.246 329.833 201.036 329.72 201.86L325.72 250C325.679 250.783 325.841 251.563 326.192 252.264C326.543 252.965 327.069 253.563 327.72 254C328.436 254.343 329.222 254.513 330.016 254.498C330.809 254.482 331.588 254.281 332.29 253.91L385 223.48C385.696 223.027 386.286 222.431 386.732 221.73C387.177 221.03 387.466 220.242 387.58 219.42V219.42Z" fill="#E0E0E0"/>
<path d="M387.58 219.42L391.58 171.27C391.62 170.487 391.457 169.707 391.107 169.006C390.756 168.305 390.23 167.707 389.58 167.27C388.868 166.921 388.083 166.746 387.29 166.76C386.497 166.773 385.719 166.976 385.02 167.35L332.3 197.79C331.599 198.224 331.01 198.816 330.58 199.52L338.78 204.25V250.16L385 223.48C385.696 223.027 386.286 222.431 386.732 221.73C387.177 221.03 387.466 220.242 387.58 219.42V219.42Z" fill="#FAFAFA"/>
<path d="M330.15 252.57L334.15 204.43C334.261 203.607 334.549 202.817 334.992 202.115C335.435 201.413 336.025 200.814 336.72 200.36L389.44 169.92C390.74 169.17 391.7 169.78 391.58 171.27L387.58 219.42C387.467 220.241 387.179 221.028 386.736 221.729C386.293 222.429 385.704 223.026 385.01 223.48L332.29 253.92C331 254.67 330 254.07 330.15 252.57Z" fill="#F0F0F0"/>
<path d="M357.36 213.94C357.509 212.648 357.93 211.403 358.595 210.286C359.261 209.169 360.155 208.206 361.22 207.46C363.15 206.34 364.55 207.46 364.35 209.9C364.202 211.193 363.782 212.441 363.117 213.559C362.451 214.678 361.556 215.643 360.49 216.39C358.56 217.5 357.16 216.41 357.36 213.94Z" fill="#F6AE2D"/>
<path d="M356.44 229.78L374.11 219.57L371.9 218.3L354.24 228.5L356.44 229.78Z" fill="#FAFAFA"/>
<path d="M377.58 243.07L361.8 252.18C361.494 252.347 361.148 252.427 360.8 252.41C360.5 252.402 360.207 252.326 359.94 252.19L352.94 248.19C352.672 248.013 352.45 247.775 352.293 247.495C352.137 247.214 352.05 246.901 352.04 246.58V246.21C352.04 245.61 352.45 245.36 352.98 245.66L357.17 248.08L358.11 248.62L357.9 247.56L354.26 228.56L356.46 229.84L374.13 219.64L378.34 241.52C378.37 241.823 378.315 242.129 378.18 242.403C378.046 242.677 377.838 242.908 377.58 243.07V243.07Z" fill="#F5F5F5"/>
<path d="M352.31 245.549L357.69 242.439L358.79 249.679L352.31 245.549Z" fill="#E0E0E0"/>
<path d="M356.44 229.78L354.24 228.5L357.88 247.5C358 248.08 357.67 248.32 357.15 248.02L353 245.62C352.47 245.32 352.06 245.57 352.06 246.17V246.54C352.07 246.861 352.157 247.175 352.313 247.455C352.47 247.735 352.692 247.974 352.96 248.15L359.96 252.15C360.227 252.287 360.52 252.362 360.82 252.37L356.44 229.78Z" fill="#EBEBEB"/>
<path d="M284.87 155.279C283.87 157.329 282.15 158.089 279.15 158.229C277.658 158.232 276.181 157.934 274.806 157.353C273.432 156.773 272.188 155.921 271.15 154.849L275 151.399L279.47 155.229L280.12 151.319L284.87 155.279Z" fill="#F6AE2D"/>
<path opacity="0.1" d="M284.87 155.279C283.87 157.329 282.15 158.089 279.15 158.229C277.658 158.232 276.181 157.934 274.806 157.353C273.432 156.773 272.188 155.921 271.15 154.849L275 151.399L279.47 155.229L280.12 151.319L284.87 155.279Z" fill="black"/>
<path d="M282.61 154C282.959 155.303 283.041 156.664 282.85 158C282.631 159.189 282.103 160.299 281.32 161.22C280.83 161.488 280.285 161.64 279.726 161.665C279.168 161.689 278.612 161.585 278.1 161.36C277.195 160.483 276.491 159.42 276.037 158.244C275.583 157.068 275.39 155.808 275.47 154.55L279.47 155.27L282.61 154Z" fill="#F6AE2D"/>
<path d="M281.32 161.18C281.32 161.18 284.44 188.06 284.5 190.18C284.56 192.3 281.11 199.77 279.27 199.72C277.43 199.67 274.27 192.54 274.34 190.59C274.41 188.64 278.1 161.29 278.1 161.29L281.32 161.18Z" fill="#F6AE2D"/>
<path opacity="0.1" d="M278.1 161.32C278.601 161.582 279.163 161.708 279.729 161.683C280.294 161.659 280.843 161.485 281.32 161.18V161.6C280.839 161.942 280.281 162.161 279.696 162.24C279.11 162.318 278.515 162.253 277.96 162.05L278.1 161.32Z" fill="black"/>
<path d="M279.51 155.229L266.38 143.999L266.47 140.569C266.47 140.569 264.6 140.919 262.32 146.469C264.202 151.734 267.702 156.268 272.32 159.419L275.49 154.519L279.51 155.229Z" fill="#E0E0E0"/>
<path d="M281.13 142.77C281.13 142.77 282.96 143.27 284.38 146.18C285.53 148.54 285.67 157.13 285.67 157.13L282.61 154L279.51 155.26C279.98 152.43 280.86 147.26 280.86 147.26L281.13 142.77Z" fill="#E0E0E0"/>
<path d="M259.13 146.999C259.13 146.999 252.76 146.509 248.48 150.509C244.2 154.509 243.48 157.939 241.73 168.019C239.98 178.099 238.82 186.689 238.82 186.689C238.82 186.689 245.96 191.739 254.72 189.819L257.72 172.989C259.354 169.772 260.6 166.371 261.43 162.859C262.75 155.999 261.24 149.229 259.13 146.999Z" fill="#E0E0E0"/>
</svg>
